<svg xmlns="http://www.w3.org/2000/svg" xmlns:xlink="http://www.w3.org/1999/xlink" width="31" height="61" viewBox="0 0 56 91">
  <defs>
    <radialGradient id="radial-gradient" cx="0.389" cy="0.502" r="0.5" gradientUnits="objectBoundingBox">
      <stop offset="0"/>
      <stop offset="0.333" stop-color="#252525"/>
      <stop offset="1" stop-color="#aaa"/>
    </radialGradient>
  </defs>
  <g id="pin" transform="translate(-192 -318)">
    <g id="Tracé_1" data-name="Tracé 1" transform="translate(192 318)" fill="#000b71">
      <path d="M 28.00110054016113 88.08588409423828 C 25.63165092468262 84.01560211181641 20.25119018554688 74.48772430419922 14.94944953918457 63.94908905029297 C 6.150750160217285 46.45927429199219 1.5 34.02828598022461 1.5 28 C 1.5 24.42186164855957 2.20044994354248 20.9515495300293 3.581887483596802 17.68547439575195 C 4.916512489318848 14.53005027770996 6.827475070953369 11.69587516784668 9.261674880981445 9.261674880981445 C 11.69586277008057 6.827475070953369 14.53003787994385 4.916512489318848 17.68546295166016 3.581887483596802 C 20.9515495300293 2.20044994354248 24.42186164855957 1.5 28 1.5 C 31.57813835144043 1.5 35.0484504699707 2.20044994354248 38.31453704833984 3.581887483596802 C 41.46996307373047 4.916512489318848 44.30413818359375 6.827475070953369 46.73832321166992 9.261674880981445 C 49.17252349853516 11.69587516784668 51.08348846435547 14.53005027770996 52.41811370849609 17.68547439575195 C 53.7995491027832 20.9515495300293 54.5 24.42186164855957 54.5 28 C 54.5 34.02557373046875 49.85667419433594 46.44602584838867 41.07202529907227 63.91858673095703 C 35.80573654174805 74.39315032958984 30.37804794311523 84.00274658203125 28.00110054016113 88.08588409423828 Z" stroke="none"/>
      <path d="M 28 3 C 24.62369918823242 3 21.3499870300293 3.66058349609375 18.26979827880859 4.963386535644531 C 15.29317092895508 6.222396850585938 12.61925888061523 8.025398254394531 10.32233047485352 10.32232666015625 C 8.025398254394531 12.61925506591797 6.222400665283203 15.29316711425781 4.963386535644531 18.26979827880859 C 3.660587310791016 21.34998321533203 3 24.62369537353516 3 28 C 3 30.12308502197266 3.692012786865234 34.42523956298828 6.988727569580078 42.86399841308594 C 9.201869964599609 48.52905654907227 12.29945755004883 55.33339691162109 16.19545745849609 63.08804321289063 C 20.78190231323242 72.21694183349609 25.31128120422363 80.36606597900391 28.00445175170898 85.07811737060547 C 30.75592422485352 80.25855255126953 35.37044906616211 71.93182373046875 39.83015441894531 63.04917144775391 C 43.71889877319336 55.30374145507813 46.81097030639648 48.50601196289063 49.02050018310547 42.84482574462891 C 52.30960083007813 34.4176139831543 53 30.12069702148438 53 28 C 53 24.62369537353516 52.33941268920898 21.34998321533203 51.03661346435547 18.26979827880859 C 49.7775993347168 15.29316711425781 47.97460174560547 12.61925506591797 45.67767333984375 10.32232666015625 C 43.38074493408203 8.025398254394531 40.70682907104492 6.222396850585938 37.73020172119141 4.963386535644531 C 34.65001678466797 3.66058349609375 31.37630081176758 3 28 3 M 28 0 C 43.46397018432617 0 56 12.53602600097656 56 28 C 56 43.46113967895508 28.15082168579102 91 28.00007247924805 91 C 28.00004386901855 91 28.00002670288086 91 28 91 C 27.85937118530273 90.98436737060547 0 43.46397018432617 0 28 C 0 12.53602600097656 12.53602981567383 0 28 0 Z" stroke="none" fill="#000b71"/>
    </g>
    <g id="Ellipse_1" data-name="Ellipse 1" transform="translate(203 329)" fill="#fff" stroke="#000b71" stroke-width="1" stroke-dasharray="3">
      <circle cx="17.5" cy="17.5" r="17.5" stroke="none"/>
      <circle cx="17.5" cy="17.5" r="17" fill="none"/>
    </g>
    <g id="logo" transform="translate(-119 -568)">
      <path id="Tracé_2" data-name="Tracé 2" d="M190.361,5.885c.127-.167,5.433,2.678,9.591,6.62,2.44,2.313,4.515,4.859,4.515,7.8,0,3.093-3.245,5.664-5.846,7.782a38.246,38.246,0,0,1-8.513,5.438c-.817.161,8.513-5.288,8.513-13.22S190.159,6.151,190.361,5.885Z" transform="translate(142.469 895)" fill="#fc0"/>
      <path id="Tracé_3" data-name="Tracé 3" d="M.294.007c.128-.168,5.492,2.688,9.7,6.642,2.467,2.32,4.565,4.874,4.566,7.825,0,3.1-3.277,5.678-5.9,7.8a38.658,38.658,0,0,1-8.6,5.449c-.825.161,8.6-5.3,8.6-13.253S.09.273.294.007Z" transform="translate(345.295 928.817) rotate(-178)" fill="url(#radial-gradient)"/>
    </g>
  </g>
</svg>
