<?xml version="1.0" standalone="no"?>
<svg xmlns:xlink="http://www.w3.org/1999/xlink" id="wave" style="transform:rotate(180deg); transition: 0.3s" viewBox="0 0 1440 100" version="1.1" xmlns="http://www.w3.org/2000/svg"><defs><linearGradient id="sw-gradient-0" x1="0" x2="0" y1="1" y2="0"><stop stop-color="rgba(247, 247, 248, 1)" offset="0%"/><stop stop-color="rgba(247, 247, 248, 1)" offset="100%"/></linearGradient></defs><path style="transform:translate(0, 0px); opacity:1" fill="url(#sw-gradient-0)" d="M0,80L120,66.7C240,53,480,27,720,26.7C960,27,1200,53,1440,68.3C1680,83,1920,87,2160,85C2400,83,2640,77,2880,76.7C3120,77,3360,83,3600,85C3840,87,4080,83,4320,76.7C4560,70,4800,60,5040,60C5280,60,5520,70,5760,75C6000,80,6240,80,6480,66.7C6720,53,6960,27,7200,16.7C7440,7,7680,13,7920,16.7C8160,20,8400,20,8640,18.3C8880,17,9120,13,9360,21.7C9600,30,9840,50,10080,51.7C10320,53,10560,37,10800,31.7C11040,27,11280,33,11520,30C11760,27,12000,13,12240,6.7C12480,0,12720,0,12960,1.7C13200,3,13440,7,13680,21.7C13920,37,14160,63,14400,68.3C14640,73,14880,57,15120,45C15360,33,15600,27,15840,28.3C16080,30,16320,40,16560,45C16800,50,17040,50,17160,50L17280,50L17280,100L17160,100C17040,100,16800,100,16560,100C16320,100,16080,100,15840,100C15600,100,15360,100,15120,100C14880,100,14640,100,14400,100C14160,100,13920,100,13680,100C13440,100,13200,100,12960,100C12720,100,12480,100,12240,100C12000,100,11760,100,11520,100C11280,100,11040,100,10800,100C10560,100,10320,100,10080,100C9840,100,9600,100,9360,100C9120,100,8880,100,8640,100C8400,100,8160,100,7920,100C7680,100,7440,100,7200,100C6960,100,6720,100,6480,100C6240,100,6000,100,5760,100C5520,100,5280,100,5040,100C4800,100,4560,100,4320,100C4080,100,3840,100,3600,100C3360,100,3120,100,2880,100C2640,100,2400,100,2160,100C1920,100,1680,100,1440,100C1200,100,960,100,720,100C480,100,240,100,120,100L0,100Z"/></svg>