<?xml version="1.0" encoding="UTF-8"?>
<svg width="55px" height="55px" viewBox="0 0 55 55" version="1.1" xmlns="http://www.w3.org/2000/svg" xmlns:xlink="http://www.w3.org/1999/xlink">
    <title>Adress</title>
    <g id="Page-1" stroke="none" stroke-width="1" fill="none" fill-rule="evenodd">
        <g id="Homepage" transform="translate(-535.000000, -3428.000000)" fill-rule="nonzero">
            <g id="Adress" transform="translate(535.581552, 3428.949176)">
                <path d="M10.0353197,30.7528242 C9.1403611,31.2949583 8.53874832,32.2913242 8.53874832,33.428873 C8.53874832,35.1435925 9.90478591,36.5386291 11.5838611,36.5386291 C12.9070641,36.5386291 14.0353799,35.67194 14.4543874,34.4654583 L22.3432596,34.4654583 C24.0223348,34.4654583 25.3883724,35.8604949 25.3883724,37.5752144 C25.3883724,39.2899339 24.0223348,40.6849705 22.3432596,40.6849705 L10.1628085,40.6849705 C7.36434982,40.6849705 5.0876205,43.0100315 5.0876205,45.8678973 C5.0876205,48.7257632 7.36434982,51.0508242 10.1628085,51.0508242 L20.3131844,51.0508242 C20.8737897,51.0508242 21.328222,50.5867449 21.328222,50.0142388 C21.328222,49.4417327 20.8737897,48.9776534 20.3131844,48.9776534 L10.1628085,48.9776534 C8.48373328,48.9776534 7.11769569,47.5826169 7.11769569,45.8678973 C7.11769569,44.1531778 8.48373328,42.7581412 10.1628085,42.7581412 L22.3432596,42.7581412 C25.1417182,42.7581412 27.4184476,40.4330803 27.4184476,37.5752144 C27.4184476,34.7173486 25.1417182,32.3922876 22.3432596,32.3922876 L14.4543874,32.3922876 C14.214331,31.7010925 13.7415265,31.1217449 13.1324025,30.7528242 L20.8850566,17.762751 C22.1046243,15.8906778 22.7492746,13.7092876 22.7492746,11.4532632 C22.7492746,5.16595832 17.7404701,0.0508241758 11.5838611,0.0508241758 C5.42725208,0.0508241758 0.418447566,5.16595832 0.418447566,11.4532632 C0.418447566,13.7092876 1.06309794,15.8906778 2.28266561,17.762751 L10.0353197,30.7528242 Z M11.5838611,34.4654583 C11.0241694,34.4654583 10.5688235,34.0004461 10.5688235,33.428873 C10.5688235,32.8572998 11.0241694,32.3922876 11.5838611,32.3922876 C12.1435528,32.3922876 12.5988987,32.8572998 12.5988987,33.428873 C12.5988987,34.0004461 12.1435528,34.4654583 11.5838611,34.4654583 Z M11.5838611,2.12399491 C16.6210867,2.12399491 20.7191994,6.30910466 20.7191994,11.4532632 C20.7191994,13.3054339 20.1886393,15.0953059 19.1849701,16.6294522 C19.1771543,16.641373 19.1695416,16.653501 19.1622333,16.6658364 L11.5838611,29.3639034 C11.5838611,29.3639034 3.99056787,16.641373 3.98275208,16.6294522 C2.9790829,15.0953059 2.44852275,13.3054339 2.44852275,11.4532632 C2.44852275,6.30910466 6.54663554,2.12399491 11.5838611,2.12399491 Z" id="Shape" fill="#00ADF1"></path>
                <path d="M11.9184476,17.0508242 C14.9511476,17.0508242 17.4184476,14.5835242 17.4184476,11.5508242 C17.4184476,8.51812418 14.9511476,6.05082418 11.9184476,6.05082418 C8.88574757,6.05082418 6.41844757,8.51812418 6.41844757,11.5508242 C6.41844757,14.5835242 8.88574757,17.0508242 11.9184476,17.0508242 Z M11.9184476,8.25082418 C13.7380676,8.25082418 15.2184476,9.73120418 15.2184476,11.5508242 C15.2184476,13.3704442 13.7380676,14.8508242 11.9184476,14.8508242 C10.0988276,14.8508242 8.61844757,13.3704442 8.61844757,11.5508242 C8.61844757,9.73120418 10.0988276,8.25082418 11.9184476,8.25082418 Z" id="Shape" fill="#22CABE"></path>
                <path d="M41.7659052,17.0508242 C35.3406933,17.0508242 30.1133628,22.1850901 30.1133628,28.4959109 C30.1133628,30.7640149 30.7882569,32.9568935 32.0650577,34.8379456 L40.1257569,47.2569051 C39.5016043,47.62783 39.0176001,48.20383 38.7702484,48.8889745 L29.4777696,48.8889745 C28.892706,48.8889745 28.4184476,49.3547895 28.4184476,49.9294369 C28.4184476,50.5040843 28.892706,50.9698993 29.4777696,50.9698993 L38.7701425,50.9698993 C39.2074306,52.1808935 40.3848671,53.0508242 41.7659052,53.0508242 C43.5182357,53.0508242 44.9438713,51.6505698 44.9438713,49.9294369 C44.9438713,48.7973097 44.3270281,47.8041883 43.4061594,47.2569051 L51.4668586,34.8379456 C52.7435535,32.9568935 53.4184476,30.7640149 53.4184476,28.4959109 C53.4184476,22.1850901 48.1911171,17.0508242 41.7659052,17.0508242 Z M41.7659052,50.9698993 C41.181795,50.9698993 40.7065832,50.5031479 40.7065832,49.9294369 C40.7065832,49.3557259 41.181795,48.8889745 41.7659052,48.8889745 C42.3500154,48.8889745 42.8252272,49.3557259 42.8252272,49.9294369 C42.8252272,50.5031479 42.3500154,50.9698993 41.7659052,50.9698993 Z M49.6986382,33.69146 C49.6945069,33.6977028 41.7659052,45.9129398 41.7659052,45.9129398 C41.7659052,45.9129398 33.8373035,33.6975987 33.8331721,33.69146 C32.7857145,32.1515756 32.2320069,30.3550091 32.2320069,28.4959109 C32.2320069,23.332512 36.5089137,19.131749 41.7659052,19.131749 C47.0228967,19.131749 51.2998035,23.332512 51.2998035,28.4959109 C51.2998035,30.3550091 50.7460959,32.1515756 49.6986382,33.69146 Z" id="Shape" fill="#00ADF1"></path>
                <path d="M41.9184476,23.0508242 C38.8857476,23.0508242 36.4184476,25.5181242 36.4184476,28.5508242 C36.4184476,31.5835242 38.8857476,34.0508242 41.9184476,34.0508242 C44.9511476,34.0508242 47.4184476,31.5835242 47.4184476,28.5508242 C47.4184476,25.5181242 44.9511476,23.0508242 41.9184476,23.0508242 Z M41.9184476,31.8508242 C40.0988276,31.8508242 38.6184476,30.3704442 38.6184476,28.5508242 C38.6184476,26.7312042 40.0988276,25.2508242 41.9184476,25.2508242 C43.7380676,25.2508242 45.2184476,26.7312042 45.2184476,28.5508242 C45.2184476,30.3704442 43.7380676,31.8508242 41.9184476,31.8508242 Z" id="Shape" fill="#22CABE"></path>
                <circle id="Oval" fill="#22CABE" cx="24.9184476" cy="50.5508242" r="1.5"></circle>
            </g>
        </g>
    </g>
</svg>