<?xml version="1.0" encoding="UTF-8"?>
<svg width="73px" height="57px" viewBox="0 0 73 57" version="1.1" xmlns="http://www.w3.org/2000/svg" xmlns:xlink="http://www.w3.org/1999/xlink">
    <title>Auto moto</title>
    <g id="Page-1" stroke="none" stroke-width="1" fill="none" fill-rule="evenodd">
        <g id="Homepage" transform="translate(-552.000000, -997.000000)" fill="#CEAB56" fill-rule="nonzero">
            <g id="Auto-moto" transform="translate(552.000000, 998.200000)">
                <path d="M69.3731678,20.2621211 L68.0023762,18.9826509 C68.0023762,18.9641078 67.983852,18.9455648 67.9653278,18.9270217 L62.4451131,3.99986942 C61.4633299,1.38529988 58.9625615,-0.357746479 56.1654058,-0.357746479 L17.0793219,-0.357746479 C14.2821662,-0.357746479 11.7813978,1.38529988 10.7996146,3.99986942 L5.33497258,18.7601343 L3.26026102,20.4846376 C1.20407367,22.2091409 0.0185242104,24.7495383 3.41060513e-13,27.43828 L3.41060513e-13,48.9482138 C3.41060513e-13,52.63828 3.07501892,55.6422535 6.76133678,55.6422535 L10.7996146,55.6422535 C14.4674083,55.6422535 17.4127577,52.6568231 17.4127577,49.0038429 C17.4127577,48.9852999 17.4127577,48.9667568 17.4127577,48.9667568 L17.4127577,46.1852999 L54.8316626,46.1852999 L54.8316626,48.9482138 C54.7946142,52.619737 57.7399637,55.6051674 61.4077573,55.6422535 C61.4262815,55.6422535 61.4448057,55.6422535 61.4448057,55.6422535 L65.4830836,55.6422535 C69.1694015,55.6422535 72.2444204,52.63828 72.2444204,48.9482138 L72.2444204,26.9005317 C72.2444204,24.3786774 71.2070646,21.9866244 69.3731678,20.2621211 Z M13.9770767,5.48530495 C14.4177759,4.32374423 15.5195238,3.56780789 16.749809,3.58624536 L55.4762489,3.58624536 C56.7065341,3.56780789 57.808282,4.32374423 58.2489812,5.48530495 L62.8212351,17.7830986 L60.0117779,17.7830986 C59.1303795,12.8049812 54.7417503,8.87779975 49.4533602,8.87779975 C44.1649701,8.87779975 39.7947033,12.8049812 38.9316674,17.7830986 L9.42318527,17.7830986 L13.9770767,5.48530495 Z M56.5391116,17.7830986 L43.1895991,17.7830986 C44.1817926,13.8069897 47.9882077,11.4486114 51.6683435,12.5206015 C54.0496079,13.2222678 55.9077157,15.2103222 56.5391116,17.7830986 Z M14.1339764,48.7709624 C14.1717825,50.3529732 12.8674717,51.6622235 11.222906,51.6985915 C11.204003,51.6985915 11.1850999,51.6985915 11.1661969,51.6985915 L7.0453311,51.6985915 C5.3629593,51.6985915 3.92632719,50.3893412 3.92632719,48.7709624 L3.92632719,45.3887324 C4.909286,45.8433332 5.96785703,46.0615416 7.0453311,46.0615416 L14.1339764,46.0615416 L14.1339764,48.7709624 Z M68.3180932,48.7709624 C68.3180932,50.3893412 66.8813483,51.6985915 65.1988443,51.6985915 L61.077655,51.6985915 C59.4329602,51.6985915 58.1096425,50.4075253 58.1096425,48.8255145 C58.1096425,48.8073304 58.1096425,48.7891464 58.1096425,48.7709624 L58.1096425,46.0615416 L65.1988443,46.0615416 C66.276403,46.0615416 67.3539617,45.8433332 68.3180932,45.3887324 L68.3180932,48.7709624 Z M65.2824813,43.0225352 L6.96193902,43.0225352 C5.3245484,43.0225352 3.92632719,41.6962194 3.92632719,40.0336546 L3.92632719,27.8913269 C3.94472484,26.2661231 4.64383544,24.7343217 5.85808017,23.6882135 L8.12099081,21.7267606 L64.9513237,21.7267606 L66.607112,23.3146034 C67.6925732,24.3607116 68.3180932,25.7991105 68.3180932,27.3122313 L68.3180932,40.0336546 L68.3180932,40.0336546 C68.3180932,41.6962194 66.919872,43.0225352 65.2824813,43.0225352 Z" id="Shape"></path>
                <path d="M19.8310131,26.9947686 L8.65318472,26.9947686 C7.66160317,26.9947686 6.85030917,27.8628341 6.85030917,28.9238031 L6.85030917,37.2186516 C6.85030917,38.2796206 7.66160317,39.1476861 8.65318472,39.1476861 L19.8310131,39.1476861 C20.8225947,39.1476861 21.6338887,38.2796206 21.6338887,37.2186516 L21.6338887,28.9238031 C21.6338887,27.8628341 20.8225947,26.9947686 19.8310131,26.9947686 Z M18.5215562,35.0967136 L10.7407248,35.0967136 L10.7407248,31.0457411 L18.5215562,31.0457411 L18.5215562,35.0967136 Z" id="Shape"></path>
                <path d="M62.7743316,26.9947686 L51.5965032,26.9947686 C50.6049216,26.9947686 49.7936276,27.8628341 49.7936276,28.9238031 L49.7936276,37.2186516 C49.7936276,38.2796206 50.6049216,39.1476861 51.5965032,39.1476861 L62.7743316,39.1476861 C63.7659131,39.1476861 64.5772071,38.2796206 64.5772071,37.2186516 L64.5772071,28.9238031 C64.5772071,27.8628341 63.7659131,26.9947686 62.7743316,26.9947686 Z M61.4648746,35.0967136 L53.6840433,35.0967136 L53.6840433,31.0457411 L61.4648746,31.0457411 L61.4648746,35.0967136 Z" id="Shape"></path>
                <path d="M43.1945838,32.8 L28.8054162,32.8 C27.8124373,32.8 27,33.7 27,34.8 C27,35.9 27.8124373,36.8 28.8054162,36.8 L43.1945838,36.8 C44.1875627,36.8 45,35.9 45,34.8 C45,33.7 44.2056169,32.8 43.1945838,32.8 Z" id="Path"></path>
                <path d="M43.1945838,28.8 L28.8054162,28.8 C27.8124373,28.8 27,29.7 27,30.8 C27,31.9 27.8124373,32.8 28.8054162,32.8 L43.1945838,32.8 C44.1875627,32.8 45,31.9 45,30.8 C45,29.7 44.2056169,28.8 43.1945838,28.8 Z" id="Path"></path>
            </g>
        </g>
    </g>
</svg>