<?xml version="1.0" encoding="UTF-8"?>
<svg width="66px" height="66px" viewBox="0 0 66 66" version="1.1" xmlns="http://www.w3.org/2000/svg" xmlns:xlink="http://www.w3.org/1999/xlink">
    <title>Avion</title>
    <g id="Page-1" stroke="none" stroke-width="1" fill="none" fill-rule="evenodd">
        <g id="Homepage" transform="translate(-895.000000, -1291.000000)" fill="#CEAB56" fill-rule="nonzero">
            <g id="Avion" transform="translate(895.000000, 1291.000000)">
                <path d="M31.4397637,33.4397637 C30.8534121,34.024358 30.8534121,34.9738847 31.4397637,35.5602363 C32.0261153,36.1465879 32.9750561,36.1465879 33.5602363,35.5602363 C34.1465879,34.9738847 34.1465879,34.024358 33.5602363,33.4397637 C32.9750561,32.8534121 32.0261153,32.8534121 31.4397637,33.4397637 Z" id="Path"></path>
                <path d="M51.5917539,3.77096508 C49.3797059,5.4835172 48.7769694,6.36622942 40.9318274,14.1303699 L36.2287706,13.3644798 L38.3869399,11.2062915 C39.8985648,9.69465327 39.8990683,7.24894151 38.3869399,5.73730323 C36.8758185,4.22616859 34.4286176,4.22566508 32.9174963,5.73730323 L26.8216497,11.8332034 L5.50280369,8.36227668 C4.12512022,8.13870327 2.71571375,8.5944103 1.7297839,9.58034881 C-0.166041458,11.476191 0.0912670178,14.6127647 2.25396826,16.1777786 L23.4987941,31.563053 L19.5213373,35.5410484 C18.1582564,36.9041411 16.723673,38.7788344 15.24931,41.119809 L5.34167112,38.2063052 C3.87939305,37.7767825 2.30029387,38.1791138 1.22020215,39.2572008 C-0.618723303,41.0961426 -0.34076962,44.1501352 1.79524394,45.6295465 L9.91733259,51.2521156 C8.5033943,54.372576 7.64385271,56.6289553 7.60407308,56.7331889 C7.42380608,57.207527 7.53911654,57.7438011 7.89763651,58.1023242 C8.25817063,58.4628615 8.79494344,58.5751518 9.26675984,58.3958901 C9.37099238,58.3566138 11.627352,57.4965611 14.7477849,56.0826104 L20.370808,64.205274 C21.8527242,66.3448312 24.9066899,66.6157378 26.7436012,64.7788103 C27.8211752,63.6997161 28.223503,62.120603 27.7934805,60.6583121 L24.8805058,50.7510896 C27.2229706,49.2757065 29.0966402,47.8411105 30.4592174,46.4790248 L34.4371779,42.5010295 L49.8218135,63.7460421 C51.3893312,65.9122871 54.5258774,66.164059 56.4196887,64.2702311 C57.405115,63.2847961 57.860818,61.8743702 57.6377501,60.496171 L54.1668539,39.1786481 L60.2621968,33.0832515 C61.7738218,31.5716133 61.7738218,29.1243909 60.2621968,27.6132562 C58.7510755,26.101618 56.3053852,26.101618 54.7937603,27.6132562 L52.6350873,29.7714445 L51.8697076,25.0683463 C59.6418364,17.2150786 60.5104417,16.626436 62.2239859,14.4143684 C62.226,14.4118507 62.2285178,14.4088295 62.2305318,14.4058082 C66.206478,9.25304547 67.1370186,4.04892121 64.5442949,1.45516753 C61.9510676,-1.13657184 56.7464856,-0.207030222 51.5917539,3.77096508 Z M34.7403085,7.5606351 C35.2438477,7.05658787 36.0600849,7.05658787 36.5641278,7.5606351 C37.0681706,8.06468232 37.0676671,8.87891246 36.5641278,9.38295968 L33.0927279,12.8538866 L29.9571888,12.3432932 L34.7403085,7.5606351 Z M3.76559324,14.0890792 C2.88339242,13.4510893 2.78218093,12.173599 3.5530996,11.4031772 C3.95442037,11.0013492 4.5294623,10.8155416 5.08939798,10.906683 L38.6855387,16.3766783 L25.3452726,29.7165583 L3.76559324,14.0890792 Z M3.04301434,41.0810362 C3.45490941,40.669641 4.05714239,40.5155566 4.6145604,40.6797119 L13.8811938,43.4048905 C12.9335328,45.0645705 11.9773117,46.8979731 11.0236084,48.8824389 L3.26306098,43.5101311 C2.44883799,42.9461621 2.34208766,41.7814655 3.04301434,41.0810362 Z M24.9197818,62.9569891 C24.2248976,63.6518794 23.0587007,63.5582204 22.4902048,62.737444 L17.1179443,54.9763249 C19.1039032,54.021606 20.9377932,53.064873 22.5954445,52.1192178 L25.3200956,61.3854292 C25.4842493,61.9433556 25.3306699,62.5455939 24.9197818,62.9569891 Z M56.6170761,29.4360843 C57.1206154,28.9325406 57.9353419,28.9320371 58.4393846,29.4360843 C58.9434274,29.9401317 58.9429239,30.7558725 58.4393846,31.2599197 L53.6562651,36.0425778 L53.1461797,32.9070112 L56.6170761,29.4360843 Z M55.0928626,60.9095803 C55.1840032,61.4710316 54.9981973,62.0460786 54.5968764,62.4474029 C53.8299861,63.2143 52.5514999,63.1206408 51.9104944,62.2344038 L36.2831528,40.6550382 L49.6234189,27.3146547 L55.0928626,60.9095803 Z M28.6364054,44.655693 C27.2179351,46.0746791 25.1418426,47.6064592 22.466035,49.2092388 C18.9875856,51.2923991 14.871152,53.2652833 11.1580534,54.8423822 C12.7779392,51.0285422 14.788068,46.8456046 16.916025,43.3273447 C18.4724649,40.7522222 19.9624377,38.7456004 21.344653,37.3638765 C52.8329784,5.95080576 50.9673652,7.57120948 52.8782968,6.04295429 C54.9981973,5.90750107 56.8643138,6.53693077 58.1634451,7.83607341 C59.4625765,9.1352163 60.0925041,11.0018527 59.9570521,13.1212682 C58.4252855,15.0367486 60.0265404,13.1892466 28.6364054,44.655693 Z M62.1630576,9.73392974 C61.7511625,8.31292933 61.0195199,7.04601336 59.9867608,6.01324531 C58.9540018,4.98098064 57.687097,4.24882815 56.2666127,3.83692934 C58.1322257,2.89077068 61.2738073,1.83131471 62.7214827,3.27799588 C63.8645169,4.42154355 63.5805208,6.93875858 62.1630576,9.73392974 L62.1630576,9.73392974 Z" id="Shape"></path>
                <path d="M38.8786407,26.3640887 L35.3640777,29.878273 C34.8786408,30.3637246 34.8786408,31.1506417 35.3640777,31.6360933 C35.8495145,32.121545 36.6359224,32.1210594 37.1218447,31.6360933 L40.6359223,28.1214237 C41.1213592,27.6364575 41.1213592,26.8495403 40.6359223,26.3640887 C40.1504855,25.8786371 39.3640776,25.8786371 38.8786407,26.3640887 L38.8786407,26.3640887 Z" id="Path"></path>
                <path d="M45.8790269,19.3640114 L42.3636474,22.8789054 C41.8787842,23.364254 41.8787842,24.151004 42.3636474,24.6363526 C42.8494813,25.1212158 43.635746,25.1212158 44.1210946,24.6363526 L47.6359886,21.1214584 C48.1213371,20.6361099 48.1213371,19.8493599 47.6359886,19.3640114 C47.1506401,18.8786629 46.3643754,18.8786629 45.8790269,19.3640114 L45.8790269,19.3640114 Z" id="Path"></path>
            </g>
        </g>
    </g>
</svg>