<?xml version="1.0" encoding="UTF-8"?>
<svg width="96px" height="96px" viewBox="0 0 96 96" version="1.1" xmlns="http://www.w3.org/2000/svg" xmlns:xlink="http://www.w3.org/1999/xlink">
    <title>Baord</title>
    <g id="Page-1" stroke="none" stroke-width="1" fill="none" fill-rule="evenodd">
        <g id="Homepage" transform="translate(-1017.000000, -2157.000000)">
            <g id="Baord" transform="translate(1017.000000, 2157.000000)">
                <circle id="Oval-Copy-6" fill="#CEAB56" cx="47.539357" cy="47.539357" r="47.539357"></circle>
                <path d="M72.0526556,48.1392906 C71.4087147,44.7071968 69.9595362,41.7396854 67.8617235,39.5575735 C66.9187517,38.5768523 65.8066294,37.668444 64.5559108,36.857601 C63.1249309,35.9298711 61.4725034,35.0939672 59.3556301,34.2268807 C58.4280793,33.8469504 57.4998579,33.4963854 56.6348526,33.174229 C55.2324156,32.6519685 53.7552689,32.1260731 52.243928,31.6115603 C51.7241203,31.4345082 51.1978951,31.2666388 50.6890065,31.1043171 C49.8743824,30.8444303 49.0319815,30.5756478 48.220614,30.2701349 C47.7202499,30.0817003 47.5093384,29.938796 47.4236137,29.8628482 C47.4280197,29.8574917 47.4328088,29.8518482 47.4380768,29.8459178 C47.8258014,29.4044832 50.0819415,27.6358755 51.4131168,26.6246412 C51.6585097,26.4382152 51.7574523,26.1162502 51.6588929,25.8245112 C51.5603334,25.5327722 51.2863975,25.3359202 50.9781717,25.3359202 L36.2227955,25.3359202 C36.0962678,25.3359202 35.971943,25.3693028 35.8624644,25.4327201 C34.2071635,26.3912501 32.8335569,27.8995884 32.0938341,29.5708223 C31.2369702,31.5068212 31.2302655,33.5332115 32.0744862,35.4307583 C33.2305724,38.0293395 35.6727207,39.470817 37.8274278,40.7426076 C38.3896669,41.0744248 38.9206812,41.3878768 39.4226735,41.7151028 C39.7191182,41.9083201 40.0235127,42.0979982 40.3179459,42.2815546 C41.4237467,42.9710151 42.4682471,43.6222148 43.3031769,44.5393273 C44.1633932,45.4840834 44.4231534,46.6915958 44.0542977,48.0312994 C43.1972423,51.1442021 40.6498298,53.9407832 38.4023101,56.4081297 C37.9864256,56.8646773 37.5937203,57.2958771 37.2137539,57.7258334 C36.1499056,58.9298066 34.5900033,60.6805274 32.9386295,62.5339786 C27.4916149,68.6474884 23.8953919,72.695008 23.5520142,73.232286 C23.4108318,73.4531467 23.401541,73.7333118 23.5276856,73.9630682 C23.6537344,74.1928246 23.8952961,74.3359202 24.1576424,74.3359202 L66.9065875,74.3359202 L66.9066832,74.3359202 C67.2180698,74.3359202 67.4940172,74.1356246 67.5900863,73.8397726 C68.7068062,70.4001223 69.7175914,66.9306285 70.9695552,62.2387962 C72.462889,56.6417122 72.8071288,52.1614624 72.0526556,48.1392906 Z M69.5811981,61.8694833 C68.3963774,66.3096549 67.429556,69.6464792 66.3835231,72.9011383 L63.8031617,72.9011383 C63.9265286,72.5233124 64.0496082,72.1450083 64.1729752,71.7682346 C65.2821283,68.3811929 66.3641752,64.9841078 67.2862665,61.5441705 C67.4332915,60.9951273 67.5852972,60.4275276 67.7335674,59.8563888 C67.8331805,59.4729194 67.6025379,59.0813196 67.218453,58.981937 C66.8344638,58.8826501 66.4424289,59.1128848 66.3428158,59.4963542 C66.1959824,60.0620408 66.0446471,60.6269623 65.8982926,61.1732315 C64.9942083,64.5473602 63.9063187,67.9669236 62.8074142,71.3223044 C62.6352943,71.8477215 62.4630787,72.3737125 62.2912462,72.9011383 L47.1598307,72.9011383 C47.1184529,72.7232254 47.0097406,72.561095 46.8428887,72.4562603 C46.5072693,72.2452517 46.0636081,72.3460691 45.8523135,72.6813298 C45.8049015,72.7565123 45.7591178,72.8288253 45.7135256,72.9011383 L30.7491536,72.9011383 C33.0932213,69.978679 39.5512127,62.1809266 42.6488915,58.6751807 C44.3001696,56.8064252 45.6533747,54.9709566 46.671152,53.2198532 C48.3567199,50.3197764 49.0242232,47.7901604 48.6553675,45.7015006 C47.8629648,41.2145552 44.3330227,39.4110344 41.2185821,37.819957 C40.8891885,37.6517049 40.5485884,37.4776181 40.221781,37.3058268 L40.1634499,37.2751225 C39.8126012,37.090227 39.3780392,37.2244269 39.192893,37.5748006 C39.0077468,37.9251743 39.1421287,38.359148 39.4929773,38.5440436 L39.5519789,38.5751305 C39.8868321,38.7511304 40.2311676,38.9271303 40.5642009,39.0971998 C43.6538341,40.6756511 46.5722094,42.1666764 47.2404789,45.9506744 C47.5488963,47.6968996 46.9392452,49.9002462 45.4285748,52.4995927 C44.4718105,54.1457657 43.1380491,55.9530169 41.5716337,57.7258334 C38.1918775,61.5507705 30.4515596,70.9103307 28.9230738,72.9011383 L25.6808602,72.9011383 C27.3936302,70.9157829 31.1159021,66.7381764 34.012056,63.4876303 C35.6644835,61.6330313 37.2252477,59.881354 38.2911075,58.675085 C38.6638902,58.2532592 39.0531474,57.8258855 39.4652006,57.3735466 C41.8211453,54.7871132 44.4914458,51.8555669 45.4395897,48.4116122 C45.9383255,46.6000567 45.557114,44.8820489 44.3661632,43.5740061 C42.7931389,41.8463375 40.5480138,40.6817729 38.5584344,39.5074518 C36.4929001,38.2882698 34.357062,37.0275748 33.387463,34.8482369 C31.9485332,31.6137603 33.8056463,28.3708664 36.4205849,26.770702 L37.7269527,26.770702 C35.7579665,28.2125621 34.6075314,29.6694396 34.2314921,31.1893518 C33.9266187,32.4215425 34.1536215,33.6529679 34.9062748,34.8494803 C35.3204353,35.5078539 35.8548976,36.103671 36.5401206,36.6708881 C36.8454729,36.9236966 37.2983292,36.8814184 37.551672,36.5763838 C37.8048233,36.2713491 37.7624878,35.8191059 37.4570396,35.5662017 C36.891065,35.0976976 36.4546832,34.6136022 36.1228951,34.086272 C35.5780883,33.2200464 35.4156424,32.3850034 35.6262665,31.5335082 C36.0073823,29.993222 37.5963064,28.3912403 40.3496497,26.770702 L45.2072231,26.770702 C43.9327506,27.7730406 42.5152759,29.1404834 42.8993609,30.8218564 C43.2804766,32.4901251 45.2150772,33.4215854 46.6518998,34.0235242 C48.5252001,34.8083499 50.4673674,35.4315235 52.3456483,36.0342275 C55.4190943,37.0204009 58.5972299,38.0401482 61.4452056,39.7777647 C64.6954649,41.7607288 66.762819,44.671136 67.4239049,48.1940993 C67.8528157,50.4798024 67.7520533,53.0373489 67.1067714,56.2434168 L67.0965227,56.2946863 C67.0185564,56.6832252 67.270654,57.0612424 67.6597197,57.1391032 C67.707419,57.1486685 67.754831,57.1531641 67.8015725,57.1531641 C68.1369045,57.1531641 68.4367973,56.9174773 68.5051855,56.5765731 L68.5153384,56.5256862 C69.198071,53.1336706 69.299887,50.4022286 68.8361116,47.9297168 C68.0979213,43.9962146 65.8011698,40.7538946 62.1942192,38.5533218 C59.1998889,36.7264619 55.9388063,35.6800277 52.7851909,34.6681239 C50.9359319,34.0747938 49.0237443,33.4611854 47.2078173,32.7003684 C46.6535281,32.4680294 46.1818028,32.2305252 45.7656309,31.9743688 C45.2422792,31.6522125 44.451409,31.1654388 44.299978,30.5024739 C44.0529568,29.4207441 45.672531,28.2070143 46.7443293,27.4038234 C47.0523635,27.1729192 47.3291729,26.9652584 47.5558884,26.770702 C47.5558884,26.770702 48.8766235,26.770702 48.8764319,26.770702 C47.9289584,27.5158321 45.6049091,28.658588 45.9863122,30.1813698 C46.1776842,30.9452476 47.0100279,31.3474648 47.7137368,31.6125168 C49.0528619,32.1167948 50.4266601,32.5084903 51.7802484,32.9694379 C53.2786587,33.4797419 54.7430665,34.0008547 56.1327645,34.518524 C56.9864675,34.8365673 57.9018541,35.1821584 58.8105359,35.5543408 C60.8424508,36.3866099 62.419498,37.1831052 63.7735651,38.0610004 C64.9319501,38.8120608 65.9586351,39.6498778 66.8252687,40.5513034 C68.7289318,42.531398 70.0481344,45.2466748 70.6403532,48.4034818 C71.3540233,52.2076624 71.0174461,56.4865645 69.5811981,61.8694833 L69.5811981,61.8694833 Z" id="Shape" fill="#FFFDFD" fill-rule="nonzero"></path>
                <path d="M55.9801913,45.0193573 C56.1365679,45.2257205 56.3847795,45.3359202 56.6371654,45.3359202 C56.79686,45.3359202 56.9582671,45.2917208 57.0988026,45.1995393 C57.4612194,44.9620176 57.5479168,44.4962322 57.292641,44.1591624 C56.8528387,43.5786975 56.3495653,43.0349659 55.7970563,42.5431984 C55.4767039,42.2579932 54.9685069,42.2684458 54.6620689,42.5662936 C54.3555238,42.864241 54.3665483,43.3367957 54.6869008,43.6219014 C55.1648071,44.0473699 55.6000069,44.5175354 55.9801913,45.0193573 L55.9801913,45.0193573 Z" id="Path" fill="#FFFDFD" fill-rule="nonzero"></path>
                <path d="M48.0684275,37.578657 L48.0251323,37.5481283 C47.4964372,37.1766955 46.9683829,36.805635 46.4384979,36.4380493 C46.10129,36.204368 45.6873774,36.3851825 45.5146545,36.8428651 C45.3420231,37.3005478 45.4756614,37.8612339 45.8132354,38.0954115 C46.3409236,38.4613839 46.8668727,38.8309552 47.393371,39.2008988 L47.4366661,39.2313035 C47.5377187,39.3022889 47.6456362,39.3359202 47.7519976,39.3359202 C48.0002353,39.3359202 48.2399605,39.1527478 48.3620656,38.8333131 C48.5365276,38.3768715 48.4050861,37.8151926 48.0684275,37.578657 L48.0684275,37.578657 Z" id="Path" fill="#FFFDFD" fill-rule="nonzero"></path>
                <path d="M39.1475265,31.8373725 C39.3508693,31.3131363 39.6977412,30.8672977 40.0992965,30.6142182 C40.4814969,30.3733169 40.5519206,29.9251949 40.2568171,29.6133172 C39.9613639,29.3013443 39.4121986,29.2439733 39.0301147,29.4847794 C38.3434832,29.9175835 37.7930353,30.6002322 37.4802093,31.4067567 C37.3344648,31.7824752 37.589576,32.1835016 38.0500121,32.30243 C38.1378086,32.3250739 38.2266544,32.3359202 38.3141011,32.3359202 C38.6851083,32.335825 39.0295318,32.1415437 39.1475265,31.8373725 L39.1475265,31.8373725 Z" id="Path" fill="#FFFDFD" fill-rule="nonzero"></path>
                <path d="M41.0436192,34.6743984 C40.4072879,34.2875582 39.9668233,33.9427405 39.615432,33.5566007 C39.3234227,33.2355957 38.8766429,33.2687468 38.6174353,33.6302567 C38.3582276,33.9918834 38.3849024,34.5451793 38.6769116,34.8661843 C39.1273675,35.3613491 39.6651056,35.7869433 40.4205782,36.2461555 C40.5207737,36.3070881 40.6270017,36.3359202 40.7316274,36.3359202 C40.9927202,36.3359202 41.243916,36.1559239 41.3667333,35.8461249 C41.538753,35.4121262 41.394068,34.8875457 41.0436192,34.6743984 L41.0436192,34.6743984 Z" id="Path" fill="#FFFDFD" fill-rule="nonzero"></path>
                <path d="M49.0070009,67.4353368 C48.5861414,67.2369824 48.0405521,67.3446498 47.7884865,67.676329 C47.3746157,68.2207307 46.9653645,68.7563622 46.5677216,69.2738004 C46.3136423,69.60436 46.4479667,70.0346566 46.8677602,70.2346904 C47.0116792,70.3032654 47.1702862,70.3359202 47.3269981,70.3359202 C47.6275105,70.3359202 47.9209157,70.2157506 48.0878144,69.9983631 C48.4867603,69.4791523 48.8976699,68.9415614 49.3129621,68.3952005 C49.5649092,68.0636146 49.4279789,67.6338778 49.0070009,67.4353368 Z" id="Path" fill="#FFFDFD" fill-rule="nonzero"></path>
                <path d="M57.1754842,47.3477326 C56.682812,47.4153001 56.3605823,47.7534817 56.4559186,48.1030965 C56.5661551,48.5082438 56.6221213,48.9170017 56.6221213,49.3179369 C56.6221213,49.3487119 56.6217579,49.3794869 56.6210311,49.4116374 C56.619214,49.4955381 56.615701,49.5790089 56.610492,49.6622219 C56.587839,50.0179401 56.9760894,50.3192432 57.4772414,50.3352325 C57.4911724,50.3356623 57.5049822,50.3359202 57.518792,50.3359202 C58.001652,50.3359202 58.4038334,50.0659938 58.4256384,49.7201615 C58.4318165,49.6241399 58.4358141,49.5276885 58.4378735,49.4321828 C58.4388426,49.3941008 58.439206,49.3559329 58.439206,49.3178509 C58.439206,48.8349922 58.372095,48.3438811 58.2399324,47.8583575 C58.144596,47.5087428 57.6671873,47.280251 57.1754842,47.3477326 L57.1754842,47.3477326 Z" id="Path" fill="#FFFDFD" fill-rule="nonzero"></path>
                <path d="M51.9915909,62.4297219 C51.5632192,62.2371643 51.0143007,62.3504881 50.765912,62.6834 C50.3793968,63.2019029 49.9758999,63.7395407 49.5625965,64.2867461 C49.3119356,64.6186362 49.4553242,65.0454583 49.8826196,65.2401523 C50.025171,65.3050812 50.1813556,65.3359202 50.3355073,65.3359202 C50.6433322,65.3359202 50.943025,65.2127502 51.1100923,64.991583 C51.5249504,64.4421483 51.930002,63.9021882 52.3183111,63.3816418 C52.5665801,63.0488228 52.4202018,62.622651 51.9915909,62.4297219 L51.9915909,62.4297219 Z" id="Path" fill="#FFFDFD" fill-rule="nonzero"></path>
                <path d="M57.8001565,53.3785251 C57.2922155,53.2484605 56.7273715,53.4261975 56.5383489,53.7754649 C56.264822,54.2808818 55.9376625,54.8012301 55.5381642,55.3662824 C55.3012646,55.7013382 55.504284,56.1050241 55.9915568,56.2679196 C56.1298246,56.3141528 56.275941,56.3359202 56.4197028,56.3359202 C56.7834896,56.3359202 57.1331487,56.1962312 57.3028112,55.9560704 C57.7300416,55.3518008 58.0814012,54.7924152 58.3772968,54.246072 C58.5663194,53.8968945 58.3079667,53.5084997 57.8001565,53.3785251 L57.8001565,53.3785251 Z" id="Path" fill="#FFFDFD" fill-rule="nonzero"></path>
                <path d="M54.9882216,58.4295235 C54.5563153,58.2373015 54.0035715,58.3505967 53.7534634,58.6827008 C53.3789036,59.1803473 52.9542258,59.744322 52.5517156,60.305425 C52.3107636,60.6414198 52.4695509,61.0640303 52.9065173,61.2493971 C53.0448237,61.3080364 53.1945753,61.3359202 53.3420379,61.3359202 C53.6605764,61.3359202 53.9693563,61.2061356 54.134047,60.9765808 C54.5275215,60.4281692 54.9471393,59.870679 55.317362,59.3788686 C55.5675906,59.0467646 55.4200075,58.6218382 54.9882216,58.4295235 L54.9882216,58.4295235 Z" id="Path" fill="#FFFDFD" fill-rule="nonzero"></path>
                <path d="M53.0876106,40.6615692 C52.7883645,40.4419704 52.4855848,40.2119771 52.1929412,39.9896304 C51.9575802,39.8108928 51.7224981,39.6323941 51.4862072,39.4566434 C51.1527404,39.2087286 50.7260963,39.354849 50.5332323,39.7831741 C50.3401823,40.2113798 50.4539107,40.7596598 50.7872845,41.0076941 C51.0198558,41.1806968 51.2513112,41.3564475 51.4830455,41.5325567 C51.7800598,41.7581293 52.087303,41.9914679 52.3955692,42.2177574 C52.504741,42.297807 52.6235839,42.3359202 52.740939,42.3359202 C52.9830883,42.3359202 53.2184493,42.1736704 53.3471493,41.8841776 C53.5383394,41.4544187 53.4221003,40.9070945 53.0876106,40.6615692 L53.0876106,40.6615692 Z" id="Path" fill="#FFFDFD" fill-rule="nonzero"></path>
            </g>
        </g>
    </g>
</svg>