<svg id="Group_44_Copy" data-name="Group 44 Copy" xmlns="http://www.w3.org/2000/svg" xmlns:xlink="http://www.w3.org/1999/xlink" width="98" height="100" viewBox="0 0 98 100">
  <defs>
    <clipPath id="clip-path">
      <path id="Clip_2" data-name="Clip 2" d="M0,0H98V100H0Z" fill="none"/>
    </clipPath>
  </defs>
  <g id="Group_3" data-name="Group 3">
    <path id="Clip_2-2" data-name="Clip 2" d="M0,0H98V100H0Z" fill="none"/>
    <g id="Group_3-2" data-name="Group 3" clip-path="url(#clip-path)">
      <path id="Fill_1" data-name="Fill 1" d="M98,34.812c-.569,1.245-1.324,1.691-2.211,1.284a1.776,1.776,0,0,1-.965-1.858q.017-5.805,0-11.61c0-1.947-.637-2.6-2.55-2.6q-25.466,0-50.931,0c-1.819,0-2.426.62-2.426,2.478q0,35.952,0,71.9c0,1.925.644,2.588,2.557,2.588q25.369.009,50.737,0c1.916,0,2.613-.721,2.613-2.679q0-26.2,0-52.391c0-.39-.008-.781.011-1.17A1.488,1.488,0,0,1,96.159,39.2,1.454,1.454,0,0,1,97.865,40.3c.042.123.09.243.135.365V95.316A5.34,5.34,0,0,1,94.111,100H39.473c-2.725-1.036-3.844-3.049-3.759-5.928.084-2.859-.005-5.724.033-8.585.011-.815-.269-1.071-1.066-1.053-1.976.045-3.952.021-5.929.012-1.276-.006-1.953-.535-1.974-1.512s.618-1.594,1.891-1.632q2.913-.087,5.831-.015c.9.021,1.26-.217,1.252-1.2q-.062-7.707,0-15.415c.007-.9-.282-1.193-1.169-1.168-1.845.054-3.693.013-5.54.017a3.285,3.285,0,0,1-1.336-.2,1.438,1.438,0,0,1-.908-1.656,1.482,1.482,0,0,1,1.574-1.311c1.586-.048,3.175-.023,4.762-.024,2.6,0,2.6,0,2.6-2.613,0-4.553-.019-9.106.016-13.659.007-.874-.219-1.21-1.142-1.18-1.974.064-3.952.028-5.929.015-1.269-.008-1.923-.562-1.9-1.564.022-.949.687-1.5,1.88-1.5,2.041-.012,4.083-.027,6.123.007.716.012.966-.232.961-.955q-.037-6,0-12c.006-.787-.285-1-1.028-.99q-3.158.054-6.318,0a1.52,1.52,0,0,1-1.478-2.207,1.591,1.591,0,0,1,1.618-.849c2.106.005,4.212-.013,6.318.007.606.006.844-.188.89-.831.241-3.335,2.215-5.16,5.6-5.168,7.193-.018,14.386-.006,21.579-.006q8.894,0,17.788,0c1.339,0,1.349-.009,1.347-1.367,0-2.374.042-4.75-.044-7.121a5.477,5.477,0,0,0-5.49-5.23,5.548,5.548,0,0,0-5.521,5.32c-.048,1.267-.009,2.536-.035,3.8a1.919,1.919,0,0,1-.946,1.9,1.46,1.46,0,0,1-2.139-1.118c-.118-2.843-.475-5.739.981-8.4.261-.477.564-.931.855-1.407-.317-.243-.651-.131-.956-.131Q39.8,3.063,10.838,3.067c-3.047,0-5.507,1.055-6.951,3.915a7.246,7.246,0,0,0-.707,3.308q-.013,40.3-.009,80.59a5.8,5.8,0,0,0,6.014,5.986c7.159-.1,14.32-.031,21.481-.031.324,0,.648,0,.972,0,.9.021,1.711.246,1.965,1.242.249.974-.372,1.5-1.13,1.918H7.973a9.287,9.287,0,0,1-5.729-2.988A10.116,10.116,0,0,1,0,89.945Q.006,50.928.007,11.91c0-.876.044-1.754.113-2.627A9.843,9.843,0,0,1,10.035.007q33.089-.014,66.178,0a8.68,8.68,0,0,1,9.015,9.022c.012,2.178.047,4.358-.018,6.535-.029.966.23,1.326,1.242,1.289,2.006-.073,4.016-.029,6.024-.018a5.515,5.515,0,0,1,3.988,1.5A5.855,5.855,0,0,1,98,21.735Z" transform="translate(0 0)" fill="#ceab56"/>
    </g>
  </g>
  <path id="Fill_4" data-name="Fill 4" d="M6.534,14c-1.144,0-2.325-.016-3.509-.049-1.845-.05-3-1.345-3.013-3.379C0,8.139,0,5.741.012,3.443.026,1.506,1.058.271,2.773.14,4,.047,5.256,0,6.5,0s2.495.047,3.734.14c1.761.132,2.742,1.3,2.761,3.285C13,4.286,13,5.161,13,6.007q0,.516,0,1.032,0,.571,0,1.141v.009c0,.808.005,1.643,0,2.465-.025,2.007-1.137,3.239-2.974,3.294C8.882,13.982,7.71,14,6.534,14Zm.036-3.329c.922,0,1.829,0,2.7.014h.019a.745.745,0,0,0,.557-.179.909.909,0,0,0,.182-.681c-.016-.671-.012-1.355-.009-2.016V7.8q0-.4,0-.791c0-.27,0-.544,0-.808-.005-.625-.011-1.271.013-1.905a1,1,0,0,0-.187-.764.824.824,0,0,0-.627-.2H9.17c-.782.016-1.6.024-2.5.024-.8,0-1.659-.006-2.7-.019h-.03a.871.871,0,0,0-.649.2.9.9,0,0,0-.194.661c.019,2.037.011,4.078,0,5.628a.909.909,0,0,0,.2.675.764.764,0,0,0,.567.183h.013C4.8,10.675,5.708,10.67,6.569,10.67Z" transform="translate(7 34)" fill="#ceab56"/>
  <path id="Fill_6" data-name="Fill 6" d="M6.565,14C5.3,14,4,13.943,2.684,13.829A2.772,2.772,0,0,1,.728,12.86a3.451,3.451,0,0,1-.711-2.2c-.022-2.416-.023-4.882,0-7.331a3.5,3.5,0,0,1,.8-2.321A2.848,2.848,0,0,1,2.93.059C4.154.02,5.372,0,6.549,0c1.2,0,2.4.021,3.559.061,1.755.061,2.86,1.317,2.884,3.28C13,4.192,13,5.058,13,5.9c0,.355,0,.708,0,1.061,0,.4,0,.809,0,1.213v.006c0,.852.008,1.732-.009,2.6a2.868,2.868,0,0,1-2.572,3.046C9.166,13.938,7.871,14,6.565,14Zm.029-3.349c.885,0,1.765.007,2.616.02h.033a.789.789,0,0,0,.591-.183.949.949,0,0,0,.191-.711C10,7.768,10,5.966,10.027,4.266a1.035,1.035,0,0,0-.2-.766.777.777,0,0,0-.579-.187l-.085,0c-.294.013-.613.019-1,.019-.237,0-.473,0-.71,0H7.4c-.223,0-.454,0-.68,0h-.1c-.265,0-.534,0-.794,0s-.532,0-.795,0c-.406,0-.739-.005-1.049-.017H3.9a.807.807,0,0,0-.6.2,1.02,1.02,0,0,0-.212.759c.019,1.688.02,3.491,0,5.511a.939.939,0,0,0,.2.7.826.826,0,0,0,.611.192h.027C4.834,10.657,5.729,10.651,6.594,10.651Z" transform="translate(7 76)" fill="#ceab56"/>
  <path id="Fill_8" data-name="Fill 8" d="M6.538,13c-1.241,0-2.494-.015-3.724-.044A2.778,2.778,0,0,1,.04,10.163C-.013,7.651-.013,5.173.04,2.8A2.779,2.779,0,0,1,2.9.014C3.322,0,3.773,0,4.318,0,4.707,0,5.1,0,5.485,0h.006q.545,0,1.089,0c.369,0,.744,0,1.107,0S8.429,0,8.8,0c.525,0,.959,0,1.366.014A2.767,2.767,0,0,1,12.976,2.84c.031,2.413.031,4.859,0,7.272a2.768,2.768,0,0,1-2.8,2.847C8.963,12.986,7.74,13,6.538,13ZM3.961,2.966a.906.906,0,0,0-.675.2.886.886,0,0,0-.191.664c.025,1.82.016,3.642,0,5.184a.919.919,0,0,0,.2.684.808.808,0,0,0,.6.191h.016c.8-.007,1.652-.011,2.59-.011.806,0,1.663,0,2.779.008H9.29a.753.753,0,0,0,.559-.176.747.747,0,0,0,.167-.558c-.011-.66-.008-1.332-.006-1.982v-.01q0-.371,0-.742c0-.26,0-.521,0-.781V5.63c0-.607-.01-1.234.012-1.85a.814.814,0,0,0-.165-.623.848.848,0,0,0-.639-.191H9.183c-.891.013-1.777.02-2.635.02S4.833,2.979,4,2.966Z" transform="translate(7 55)" fill="#ceab56"/>
  <path id="Fill_10" data-name="Fill 10" d="M1.426,2.141A2.476,2.476,0,0,1,3.207,3.319c.56.733.979.666,1.545-.012C5.517,2.388,6.359,1.541,7.192.69,8-.133,8.887-.217,9.523.422a1.729,1.729,0,0,1-.188,2.548q-2.023,2.216-4.1,4.373a1.485,1.485,0,0,1-2.459.006C1.962,6.523,1.174,5.669.4,4.8A1.567,1.567,0,0,1,.166,3.037a1.5,1.5,0,0,1,1.26-.9" transform="translate(9 19)" fill="#ceab56"/>
  <path id="Fill_12" data-name="Fill 12" d="M46.612,18H32.432c-8.713,0-18.069,0-27.456,0H4.821a10.388,10.388,0,0,1-1.3-.057c-2.359-.3-3.508-1.581-3.515-3.926C0,10.689,0,7.319.005,3.994A3.624,3.624,0,0,1,3.986.032C7.529.025,11.053.024,13.727.024h5.337l6.438,0c1.98,0,3.993,0,5.94.008h.035c1.937,0,3.94.008,5.91.008C41,.042,43.937.029,46.63,0H46.7a4.46,4.46,0,0,1,3.269,1.217A4.065,4.065,0,0,1,51,4.317c-.083,2.173-.064,4.385-.046,6.525.009,1.019.018,2.072.016,3.107-.005,2.529-1.364,3.927-3.93,4.043C46.913,18,46.782,18,46.612,18ZM15.021,3.186q-5.281,0-10.562,0c-1.186,0-1.282.095-1.284,1.257,0,1.147,0,2.312,0,3.439,0,1.905,0,3.872-.014,5.807a1.214,1.214,0,0,0,.255.9,1.265,1.265,0,0,0,.944.27c6.907-.01,14.016-.015,21.128-.015,6.9,0,14,0,21.124.014a1.387,1.387,0,0,0,1.022-.294,1.238,1.238,0,0,0,.273-.926c-.013-1.562-.012-3.15-.011-4.686,0-1.433,0-2.912-.008-4.368-.009-1.285-.133-1.4-1.473-1.4H15.021Z" transform="translate(41 22)" fill="#ceab56"/>
  <path id="Fill_14" data-name="Fill 14" d="M5.414,24c-.763,0-1.459-.006-2.129-.018A3,3,0,0,1,.1,21.037a25.793,25.793,0,0,1-.1-2.67v-.2C0,13.484,0,8.874.008,4.462A12.6,12.6,0,0,1,.139,2.584,2.916,2.916,0,0,1,2.956.033C3.874.011,4.766,0,5.607,0,6.473,0,7.321.012,8.13.035a2.953,2.953,0,0,1,2.857,3.146C11,5.226,11,7.306,11,9.317v.014q0,1.343,0,2.686,0,1.166,0,2.332v.077c0,2.009,0,4.087,0,6.13a3.1,3.1,0,0,1-3.316,3.427C6.816,24,6.1,24,5.414,24Zm.171-3.283c.462,0,.886.011,1.293.034.05,0,.1,0,.144,0a.9.9,0,0,0,.677-.215,1.188,1.188,0,0,0,.232-.887C7.9,17.843,7.909,16,7.914,14.222q0-1.1,0-2.2,0-1.074,0-2.148c0-1.9,0-3.856.01-5.784a1.023,1.023,0,0,0-.21-.762.822.822,0,0,0-.609-.193H7.033c-.488.017-.99.026-1.491.026s-1.016-.009-1.53-.026H3.944a.77.77,0,0,0-.575.18.955.955,0,0,0-.2.708c.017,6.317.016,11.179,0,15.765a1.034,1.034,0,0,0,.218.763.891.891,0,0,0,.664.2l.1,0C4.684,20.727,5.154,20.717,5.585,20.717Z" transform="translate(81 70)" fill="#ceab56"/>
  <path id="Fill_16" data-name="Fill 16" d="M6.977,11c-.249,0-.5,0-.748-.006H6.221c-.247,0-.5-.006-.756-.006s-.5,0-.74.006S4.205,11,3.945,11c-.348,0-.637-.006-.908-.018a3.028,3.028,0,0,1-3.012-3.1c-.033-1.522-.033-3.116,0-4.738A3.019,3.019,0,0,1,3.108.025C3.864.009,4.643,0,5.423,0S6.979.008,7.771.024a2.963,2.963,0,0,1,3.074,2.8,23.234,23.234,0,0,1-.007,5.414A2.969,2.969,0,0,1,7.894,10.98C7.621,10.994,7.329,11,6.977,11ZM4.368,3.236c-.571,0-.852.027-1.011.188-.2.2-.192.607-.182,1.421,0,.158,0,.331,0,.52,0,.306,0,.571,0,.806-.009.805-.014,1.209.181,1.406.157.159.436.186,1,.186l.32,0h.036l.422,0q.2,0,.424,0l.419,0,.364,0H6.67c.554,0,.825-.024.968-.17.164-.166.161-.488.154-1.13,0-.183,0-.39,0-.626.007-1.3.01-1.953-.315-2.28-.286-.287-.822-.319-1.895-.319H5.249l-.519,0H4.7Z" transform="translate(41 43)" fill="#ceab56"/>
  <path id="Fill_18" data-name="Fill 18" d="M3.963,11c-.334,0-.611,0-.871-.014A3.053,3.053,0,0,1,.023,7.844c-.032-1.7-.031-3.253,0-4.737A2.985,2.985,0,0,1,2.955.041C3.754.014,4.58,0,5.411,0c.812,0,1.653.013,2.5.04a2.913,2.913,0,0,1,2.929,2.74,23.231,23.231,0,0,1-.006,5.51,3.044,3.044,0,0,1-.927,1.9,3.08,3.08,0,0,1-1.956.789C7.667,10.992,7.364,11,7,11c-.263,0-.53,0-.788-.008s-.525-.008-.787-.008v.006H5.3c-.2,0-.41,0-.61,0C4.454,11,4.207,11,3.963,11Zm.464-7.755c-.551,0-.9.013-1.071.188-.195.2-.19.6-.18,1.414,0,.142,0,.3,0,.466,0,.326,0,.607,0,.855-.01.814-.014,1.223.183,1.423.153.154.432.184.9.184.142,0,.3,0,.483-.006h.082c.2,0,.427-.006.688-.006H5.6c.283,0,.527,0,.742.008.173,0,.322.005.455.005.445,0,.7-.026.836-.166.17-.172.167-.511.16-1.185,0-.261-.006-.557,0-.915s0-.642,0-.9c.006-.677.01-1.016-.161-1.189-.147-.149-.412-.173-.988-.173H5.993l-.4,0H4.427Z" transform="translate(41 82)" fill="#ceab56"/>
  <path id="Fill_20" data-name="Fill 20" d="M3.969,11c-.348,0-.636-.005-.906-.016a3.073,3.073,0,0,1-3.032-3.1c-.04-1.531-.04-3.126,0-4.74A3.076,3.076,0,0,1,3.131.022C3.782.007,4.473,0,5.245,0,6.071,0,6.9.008,7.594.016a3.076,3.076,0,0,1,3.334,3.1,40.062,40.062,0,0,1,0,4.737,3.116,3.116,0,0,1-3.308,3.136C7.39,11,7.142,11,6.842,11l-.677,0H6.16l-.672,0-.293,0c-.156,0-.311,0-.463,0C4.48,11,4.223,11,3.969,11Zm.388-7.762c-.563,0-.84.027-1,.184-.188.191-.182.577-.171,1.347,0,.241.008.512.007.827,0,.244,0,.461-.007.652-.012.766-.017,1.151.169,1.339.15.152.419.179.93.179l.372,0h.051l.466,0H5.4l.434,0c.969,0,1.415-.041,1.667-.295.3-.3.293-.924.285-2.057,0-.306,0-.565,0-.793.009-.685.014-1.029-.159-1.2-.148-.15-.415-.174-1-.174H5.989l-.388,0-.4,0-.473,0H4.693Z" transform="translate(67 82)" fill="#ceab56"/>
  <path id="Fill_22" data-name="Fill 22" d="M6.927,11,6.24,11l-.687,0-.62,0H4.925L4.2,11c-.3,0-.545,0-.78-.006a3.5,3.5,0,0,1-2.352-.827A3.282,3.282,0,0,1,.077,7.89,35.87,35.87,0,0,1,.086,3.056,3.08,3.08,0,0,1,3.378.015C4.118.005,4.861,0,5.585,0s1.451.005,2.16.015a3.12,3.12,0,0,1,3.238,3.293c.023,1.63.022,3.084,0,4.444a3.3,3.3,0,0,1-.9,2.318,3.252,3.252,0,0,1-2.292.92C7.53,11,7.257,11,6.927,11ZM5.9,7.761l.409,0h.036l.335,0c.532,0,.811-.027.962-.18.186-.189.181-.574.171-1.34,0-.16,0-.338-.005-.533,0-.346,0-.64.006-.9.011-.8.017-1.2-.176-1.4-.15-.152-.426-.181-.882-.181-.141,0-.3,0-.479.006H6.2c-.22,0-.479.007-.779.007-.276,0-.518,0-.731-.008-.178,0-.33-.005-.466-.005-.458,0-.716.027-.859.172-.176.18-.169.539-.153,1.253.005.241.011.512.011.833s-.006.612-.011.859c-.015.706-.023,1.061.152,1.239.147.15.421.176.978.176h.681c.163,0,.317,0,.471,0S5.774,7.761,5.9,7.761Z" transform="translate(54 82)" fill="#ceab56"/>
  <path id="Fill_24" data-name="Fill 24" d="M5.77,11c-.787,0-1.577-.009-2.385-.02A3.142,3.142,0,0,1,.058,7.751a44.246,44.246,0,0,1,0-4.539A3.4,3.4,0,0,1,1.031.864,3.449,3.449,0,0,1,3.4.007C3.639,0,3.888,0,4.189,0l.729,0,.62,0c.247,0,.495,0,.742,0,.226,0,.451,0,.677,0,.352,0,.641,0,.91.012a3.09,3.09,0,0,1,3.105,3.119c.037,1.6.037,3.191,0,4.738a3.082,3.082,0,0,1-3.026,3.1C7.286,10.99,6.575,11,5.77,11Zm.054-3.251.472,0h.046l.374,0c.507,0,.774-.027.924-.178.186-.189.181-.576.17-1.345,0-.189-.006-.4-.006-.646,0-.3,0-.568.006-.8.011-.784.016-1.177-.174-1.37-.157-.159-.443-.186-1.026-.186H6.276l-.4,0-.379,0-.385,0-.407,0H4.375c-.587,0-.856.025-1.006.177-.173.176-.169.52-.16,1.206,0,.228.007.487,0,.792C3.2,6.533,3.2,7.156,3.5,7.457c.251.252.714.3,1.659.3l.447,0Z" transform="translate(54 43)" fill="#ceab56"/>
  <path id="Fill_26" data-name="Fill 26" d="M5.395,11c-.714,0-1.41-.005-2.069-.016A3.151,3.151,0,0,1,.012,7.556C0,6.389-.009,4.852.014,3.309A3.132,3.132,0,0,1,3.246.007C3.5,0,3.77,0,4.1,0l.691,0L5.48,0l.668,0h.006L6.83,0c.3,0,.552,0,.787.006A3.458,3.458,0,0,1,9.961.842a3.3,3.3,0,0,1,.97,2.288,40.445,40.445,0,0,1,0,4.737A3.114,3.114,0,0,1,7.6,10.985C6.817,10.995,6.1,11,5.395,11Zm.487-3.247.418,0h.031l.324,0c.555,0,.828-.025.975-.173.169-.171.165-.5.158-1.164,0-.2,0-.429,0-.69.008-1.25.012-1.877-.3-2.193-.261-.263-.722-.305-1.723-.305H5.215c-.18,0-.344,0-.494,0H4.682l-.346,0c-.541,0-.826.027-.979.183-.188.191-.182.578-.171,1.35,0,.206.007.437.007.7,0,.3,0,.553-.007.779-.011.766-.017,1.15.169,1.338.152.154.428.18.988.18h.328l.394,0q.185,0,.395,0Q5.684,7.752,5.882,7.752Z" transform="translate(67 43)" fill="#ceab56"/>
  <path id="Fill_28" data-name="Fill 28" d="M5.595,11c-.843,0-1.708-.017-2.571-.051A2.942,2.942,0,0,1,.159,8.242a23.834,23.834,0,0,1,0-5.5A2.9,2.9,0,0,1,3.026.045C3.874.015,4.735,0,5.583,0c.831,0,1.672.015,2.5.043a2.967,2.967,0,0,1,2.9,2.989c.022.574.017,1.158.012,1.724,0,.275-.005.558,0,.837,0,.226,0,.453,0,.679v.005h0c0,.519.008,1.055-.007,1.581a3.269,3.269,0,0,1-.836,2.174,2.917,2.917,0,0,1-2.072.919C7.267,10.983,6.43,11,5.595,11Zm.4-3.252.408,0h.089l.335,0c.538,0,.8-.025.948-.172.171-.174.167-.515.157-1.2,0-.235-.007-.5,0-.816.009-1.1.014-1.711-.288-2.015-.268-.271-.766-.314-1.852-.314H4.663l-.352,0c-.541,0-.807.025-.952.173-.169.171-.164.5-.154,1.167,0,.231.007.491.005.8C3.2,6.522,3.2,7.153,3.5,7.454s.889.3,2.071.3C5.7,7.75,5.842,7.749,5.991,7.749Z" transform="translate(81 43)" fill="#ceab56"/>
  <path id="Fill_30" data-name="Fill 30" d="M6.928,11c-.265,0-.529,0-.794,0l-.6,0H4.743c-.226,0-.452,0-.678,0-.328,0-.6,0-.858-.009A2.912,2.912,0,0,1,.163,8.279,23.09,23.09,0,0,1,.145,2.966,3,3,0,0,1,3.247.051C4.012.017,4.785,0,5.545,0S7.055.017,7.8.05A3.135,3.135,0,0,1,10.987,3.5c.013,1.249.022,2.729,0,4.243a3.011,3.011,0,0,1-3.226,3.251C7.508,11,7.244,11,6.928,11ZM5.985,7.883c.169,0,.323,0,.463,0h.044l.348,0c.44,0,.688-.025.824-.164.178-.181.172-.561.159-1.319,0-.224-.008-.477-.008-.769,0-.334,0-.618.008-.869.013-.771.019-1.158-.163-1.344-.14-.142-.4-.169-.823-.169-.125,0-.263,0-.422,0H6.35c-.185,0-.4.005-.649.005H5.457c-.186,0-.356,0-.513,0-1.711,0-1.711.174-1.711,2.3,0,2.319,0,2.319,2.3,2.319C5.68,7.884,5.828,7.883,5.985,7.883Z" transform="translate(54 56)" fill="#ceab56"/>
  <path id="Fill_32" data-name="Fill 32" d="M6.78,11H5.411v-.006H5.272l-.586,0c-.248,0-.491,0-.735,0-.334,0-.61,0-.87-.011A2.967,2.967,0,0,1,.032,7.952C-.009,6.614-.011,5.185.026,3.316A3.06,3.06,0,0,1,3.112.067C3.9.022,4.709,0,5.5,0S7.088.022,7.87.066a3.117,3.117,0,0,1,3.088,3.276c.056,1.436.057,2.9,0,4.339A3.1,3.1,0,0,1,7.549,11C7.319,11,7.075,11,6.78,11ZM4.2,3.26c-.444,0-.695.026-.835.167-.18.182-.176.557-.168,1.3,0,.237.005.505,0,.819C3.19,6.679,3.186,7.3,3.479,7.6s.867.291,2.018.291c2.3,0,2.3,0,2.3-2.228,0-2.213,0-2.394-1.828-2.394l-.505,0h-.2c-.2,0-.39,0-.613-.005h-.06C4.444,3.261,4.314,3.26,4.2,3.26Z" transform="translate(67 56)" fill="#ceab56"/>
  <path id="Fill_34" data-name="Fill 34" d="M5.419,11c-.79,0-1.582-.017-2.354-.05A3.09,3.09,0,0,1,.029,7.758c-.039-1.539-.039-3.1,0-4.638A3,3,0,0,1,3.1.01C3.371,0,3.657,0,4,0c.276,0,.553,0,.829,0l.691,0c.23,0,.48,0,.767,0C6.523,0,6.76,0,7,0c.364,0,.663,0,.941.015a2.881,2.881,0,0,1,2.849,2.468,21.367,21.367,0,0,1,.029,5.8A2.93,2.93,0,0,1,7.8,10.95C7.005,10.983,6.2,11,5.419,11Zm.4-3.267c.193,0,.367,0,.524,0H6.4l.376,0c.445,0,.7-.025.83-.161.167-.168.164-.506.158-1.178,0-.258,0-.549,0-.9,0-1.193,0-1.792-.29-2.091s-.873-.3-2.034-.3h-.1q-.211,0-.4,0c-.156,0-.3,0-.429,0H4.482l-.32,0c-.445,0-.68.024-.815.16-.175.176-.172.549-.165,1.292,0,.212,0,.451,0,.73-.007,1.228-.01,1.844.3,2.153.251.253.7.3,1.6.3l.493,0Z" transform="translate(67 70)" fill="#ceab56"/>
  <path id="Fill_36" data-name="Fill 36" d="M5.579,11c-.8,0-1.635-.021-2.471-.063A3.026,3.026,0,0,1,.082,7.821a36.091,36.091,0,0,1-.008-4.73A3.03,3.03,0,0,1,3.4.009C4.03,0,4.857,0,5.693,0,6.449,0,7.13,0,7.776.012a3.044,3.044,0,0,1,3.217,3.28C11,3.8,11,4.322,11,4.824c0,.213,0,.425,0,.636,0,.248,0,.5,0,.743,0,.5.006,1.018-.006,1.525a3.075,3.075,0,0,1-2.929,3.2C7.257,10.977,6.421,11,5.579,11Zm.152-3.272c.219,0,.418,0,.587.005h.064c.156,0,.3,0,.42,0,.453,0,.709-.027.852-.173.185-.188.178-.576.166-1.349,0-.25-.009-.533-.008-.866,0-.286,0-.535.008-.755.012-.762.018-1.144-.16-1.325-.138-.14-.384-.165-.848-.165l-.315,0H6.457c-.138,0-.289,0-.456,0q-.183,0-.39,0c-2.4,0-2.4,0-2.4,2.323,0,2.127,0,2.3,1.729,2.3.155,0,.324,0,.508,0Z" transform="translate(54 70)" fill="#ceab56"/>
  <path id="Fill_38" data-name="Fill 38" d="M5.446,11c-.783,0-1.581-.017-2.371-.051A3.08,3.08,0,0,1,.014,7.679C-.005,6.072,0,4.62.015,3.24A3.316,3.316,0,0,1,.892.872,3.319,3.319,0,0,1,3.258.005c.241,0,.5,0,.8,0h1.43l.3,0,.451,0C6.5,0,6.75,0,7,0c.353,0,.645,0,.918.013a2.907,2.907,0,0,1,2.909,2.642,23.274,23.274,0,0,1,.025,5.41,2.98,2.98,0,0,1-3.022,2.884C7.046,10.982,6.243,11,5.446,11ZM4.189,3.105c-.463,0-.708.025-.848.167-.185.187-.18.59-.169,1.392,0,.193.005.41.006.652,0,.323,0,.6-.006.846-.011.8-.017,1.209.175,1.4.147.149.411.177.877.177.122,0,.257,0,.407,0h.06c.133,0,.337,0,.57,0h.26l.492,0c.918,0,1.337-.049,1.556-.35s.222-.878.222-1.918c0-2.36,0-2.36-2.364-2.36h-.1l-.349,0-.39,0H4.5l-.314,0Z" transform="translate(41 70)" fill="#ceab56"/>
  <path id="Fill_40" data-name="Fill 40" d="M6.976,11c-.264,0-.532,0-.791,0s-.527,0-.791,0h0v-.006h-.1c-.23,0-.462,0-.687.005-.259,0-.525.006-.789.006-.363,0-.664-.006-.946-.019A2.923,2.923,0,0,1,.032,8.07c-.042-1.64-.042-3.326,0-5.011A2.869,2.869,0,0,1,2.416.227,18.423,18.423,0,0,1,5.359,0,25,25,0,0,1,8.313.185a2.8,2.8,0,0,1,2.533,2.692,23.313,23.313,0,0,1-.016,5.486,2.9,2.9,0,0,1-2.912,2.623C7.637,11,7.338,11,6.976,11ZM4.245,3.289c-.489,0-.747.025-.891.17-.185.186-.182.581-.177,1.367,0,.187,0,.394,0,.626,0,1.223-.007,1.837.3,2.144s.9.3,2.1.3c2.218,0,2.218,0,2.219-2.2,0-1.2,0-1.8-.3-2.1s-.907-.3-2.114-.3H4.545Z" transform="translate(41 56)" fill="#ceab56"/>
  <path id="Fill_42" data-name="Fill 42" d="M7.017,11c-.246,0-.491,0-.737,0s-.493,0-.737,0H5.281l-.483,0c-.249,0-.5,0-.745,0-.362,0-.66,0-.939-.013a2.907,2.907,0,0,1-2.957-2.7A24.243,24.243,0,0,1,.169,2.683,2.985,2.985,0,0,1,3.131.062C3.964.021,4.784,0,5.57,0S7.143.021,7.892.063a3.179,3.179,0,0,1,2.293.986,3.584,3.584,0,0,1,.805,2.441c.01,1.533.016,2.917,0,4.338a2.984,2.984,0,0,1-3.11,3.163C7.62,11,7.347,11,7.017,11ZM5.911,7.883c.214,0,.406,0,.569.007h.061c.151,0,.281.006.4.006.487,0,.74-.048.863-.32a5.105,5.105,0,0,0,.122-1.665V5.729c0-2.466,0-2.466-2.462-2.466C3.2,3.263,3.2,3.263,3.2,5.54c0,2.348,0,2.348,2.28,2.348C5.623,7.884,5.763,7.883,5.911,7.883Z" transform="translate(81 56)" fill="#ceab56"/>
</svg>
