<?xml version="1.0" encoding="UTF-8"?>
<svg width="96px" height="96px" viewBox="0 0 96 96" version="1.1" xmlns="http://www.w3.org/2000/svg" xmlns:xlink="http://www.w3.org/1999/xlink">
    <title>Etat veh</title>
    <g id="Page-1" stroke="none" stroke-width="1" fill="none" fill-rule="evenodd">
        <g id="Homepage" transform="translate(-329.000000, -2157.000000)">
            <g id="Etat-veh" transform="translate(329.000000, 2157.000000)">
                <circle id="Oval" fill="#CEAB56" cx="47.539357" cy="47.539357" r="47.539357"></circle>
                <path d="M64.4896495,64.6496674 L26.6260131,64.6496674 C23.5568313,64.6496674 21.0578313,62.2453817 21.0578313,59.2925245 L21.0578313,57.1496674 C21.0578313,53.0139531 24.5546495,49.6496674 28.8532858,49.6496674 L51.9055586,49.6496674 C52.5202858,49.6496674 53.0191949,50.1296674 53.0191949,50.721096 C53.0191949,51.3125245 52.5202858,51.7925245 51.9055586,51.7925245 L28.8532858,51.7925245 C25.784104,51.7925245 23.285104,54.1968103 23.285104,57.1496674 L23.285104,59.2925245 C23.285104,61.0646674 24.7840586,62.5068103 26.6260131,62.5068103 L64.4896495,62.5068103 C66.331604,62.5068103 67.8305586,61.0646674 67.8305586,59.2925245 L67.8305586,57.1496674 C67.8305586,55.8082388 67.311604,54.5289531 66.3672404,53.5475245 C65.9485131,53.1125245 65.9774676,52.4353817 66.429604,52.0325245 C66.8772858,51.6296674 67.5855586,51.6553817 68.0042858,52.0925245 C69.3272858,53.4725245 70.0578313,55.2682388 70.0578313,57.1496674 L70.0578313,59.2925245 C70.0578313,62.2453817 67.5588313,64.6496674 64.4896495,64.6496674 Z" id="Path" fill="#FFFFFF" fill-rule="nonzero"></path>
                <path d="M24.5578313,72.6496674 C22.0760813,72.6496674 20.0578313,70.5566674 20.0578313,67.9830007 L20.0578313,59.8163341 C20.0578313,59.1723341 20.5618313,58.6496674 21.1828313,58.6496674 C21.8038313,58.6496674 22.3078313,59.1723341 22.3078313,59.8163341 L22.3078313,67.9830007 C22.3078313,69.2686674 23.3180813,70.3163341 24.5578313,70.3163341 C25.7975813,70.3163341 26.8078313,69.2686674 26.8078313,67.9830007 L26.8078313,64.4830007 C26.8078313,63.8390007 27.3118313,63.3163341 27.9328313,63.3163341 C28.5538313,63.3163341 29.0578313,63.8390007 29.0578313,64.4830007 L29.0578313,67.9830007 C29.0578313,70.5566674 27.0395813,72.6496674 24.5578313,72.6496674 Z" id="Path" fill="#FFFFFF" fill-rule="nonzero"></path>
                <path d="M65.5578313,72.6496674 C63.0760813,72.6496674 61.0578313,70.5566674 61.0578313,67.9830007 L61.0578313,64.4830007 C61.0578313,63.8390007 61.5618313,63.3163341 62.1828313,63.3163341 C62.8038313,63.3163341 63.3078313,63.8390007 63.3078313,64.4830007 L63.3078313,67.9830007 C63.3078313,69.2686674 64.3180813,70.3163341 65.5578313,70.3163341 C66.7975813,70.3163341 67.8078313,69.2686674 67.8078313,67.9830007 L67.8078313,59.8163341 C67.8078313,59.1723341 68.3118313,58.6496674 68.9328313,58.6496674 C69.5538313,58.6496674 70.0578313,59.1723341 70.0578313,59.8163341 L70.0578313,67.9830007 C70.0578313,70.5566674 68.0395813,72.6496674 65.5578313,72.6496674 Z" id="Path" fill="#FFFFFF" fill-rule="nonzero"></path>
                <path d="M26.2125791,50.6496674 C26.0646392,50.6496674 25.9143877,50.6239531 25.7687594,50.566096 C25.1793113,50.3389531 24.9019239,49.711096 25.1469494,49.1646674 L29.7469561,38.9432388 C30.6507765,36.9439531 32.7381163,35.6496674 35.0658584,35.6496674 L42.9020507,35.6496674 C43.5400416,35.6496674 44.0578313,36.1296674 44.0578313,36.721096 C44.0578313,37.3125245 43.5423531,37.7925245 42.9020507,37.7925245 L35.0658584,37.7925245 C33.692791,37.7925245 32.4144977,38.5875245 31.8805271,39.7703817 L27.2805204,49.9918103 C27.0932839,50.401096 26.6633335,50.6496674 26.2125791,50.6496674 Z" id="Path" fill="#FFFFFF" fill-rule="nonzero"></path>
                <path d="M35.9328313,59.6496674 L29.1828313,59.6496674 C28.5618313,59.6496674 28.0578313,58.9776674 28.0578313,58.1496674 C28.0578313,57.3216674 28.5618313,56.6496674 29.1828313,56.6496674 L35.9328313,56.6496674 C36.5538313,56.6496674 37.0578313,57.3216674 37.0578313,58.1496674 C37.0578313,58.9776674 36.5538313,59.6496674 35.9328313,59.6496674 Z" id="Path" fill="#FFFFFF" fill-rule="nonzero"></path>
                <path d="M62.9328313,59.6496674 L56.1828313,59.6496674 C55.5618313,59.6496674 55.0578313,58.9776674 55.0578313,58.1496674 C55.0578313,57.3216674 55.5618313,56.6496674 56.1828313,56.6496674 L62.9328313,56.6496674 C63.5538313,56.6496674 64.0578313,57.3216674 64.0578313,58.1496674 C64.0578313,58.9776674 63.5538313,59.6496674 62.9328313,59.6496674 Z" id="Path" fill="#FFFFFF" fill-rule="nonzero"></path>
                <path d="M60.5578313,49.6496674 C60.4093313,49.6496674 60.2608313,49.6199537 60.1213313,49.5582405 C59.5858313,49.3319588 47.0578313,43.8303428 47.0578313,32.5894006 L47.0578313,23.0375712 C47.0578313,22.5484371 47.3660813,22.1118734 47.8228313,21.954162 L60.1978313,17.7096663 C60.4318313,17.6296678 60.6838313,17.6296678 60.9178313,17.7096663 L73.2928313,21.954162 C73.7495813,22.1118734 74.0578313,22.5484371 74.0578313,23.0375712 L74.0578313,32.5894006 C74.0578313,43.8303428 61.5298313,49.3319588 60.9943313,49.5605261 C60.8548313,49.6199537 60.7063313,49.6496674 60.5578313,49.6496674 Z M49.3078313,23.858128 L49.3078313,32.5894006 C49.3078313,41.2406747 58.4315813,46.2074432 60.5578313,47.2497103 C62.6818313,46.2051575 71.8078313,41.2201036 71.8078313,32.5894006 L71.8078313,23.858128 L60.5578313,19.9999112 L49.3078313,23.858128 Z" id="Shape" fill="#FFFFFF" fill-rule="nonzero"></path>
                <path d="M59.828023,38.6496674 C59.807252,38.6496674 59.7841732,38.6496674 59.7634022,38.6476675 C59.4356826,38.6316684 59.1310418,38.495676 58.92564,38.2736883 L54.3098704,33.2739661 C53.9129142,32.8419901 53.9936902,32.2140249 54.4898854,31.8680442 C54.9883885,31.5220634 55.7130644,31.5940594 56.1123284,32.0240355 L59.9226462,36.1518062 L67.0886286,29.9421512 C67.5386661,29.5521728 68.2702656,29.5521728 68.7203031,29.9421512 C69.1703407,30.3321295 69.1703407,30.9660943 68.7203031,31.3560726 L60.6427063,38.3556837 C60.428073,38.5456732 60.1326638,38.6496674 59.828023,38.6496674 L59.828023,38.6496674 Z" id="Path" fill="#FFFFFF" fill-rule="nonzero"></path>
            </g>
        </g>
    </g>
</svg>