<?xml version="1.0" encoding="UTF-8"?>
<svg width="19px" height="17px" viewBox="0 0 19 17" version="1.1" xmlns="http://www.w3.org/2000/svg" xmlns:xlink="http://www.w3.org/1999/xlink">
    <title>header twitter</title>
    <defs>
        <path d="M9.27418772,5.73959776 C9.27418772,5.73959776 6.3383441,6.42043893 3.06233225,2.59102283 C3.06233225,2.59102283 1.78594434,5.10140381 3.99855194,6.63291789 C3.99855194,6.63291789 3.27556827,6.76060716 2.67926447,6.33539687 C2.67926447,6.33539687 2.42388595,8.50510491 5.06195618,9.35603019 L3.65787901,9.35603019 C3.65787901,9.35603019 4.04119914,11.1005279 6.50868057,11.4833434 C6.50868057,11.4833434 5.48767117,12.8447734 2.16875977,12.7597313 C2.16875977,12.7597313 4.04119914,14.2062033 6.8920007,14.1635561 C6.8920007,14.1635561 12.1673841,14.4189346 14.6777651,8.46220536 C15.295014,6.99731176 15.230917,5.6119085 15.1882698,4.93081499 L16.8050783,3.48459531 L15.1882698,3.78236869 C15.1882698,3.78236869 16.2945736,2.97409061 16.4225152,2.20820739 L14.6353703,2.93144341 C14.6353703,2.93144341 13.2951377,1.71890012 11.0186855,2.20820739 C11.0184331,2.20820739 8.93401948,2.63367003 9.27418772,5.73959776 Z M10.9380583,0.136320456 C12.4776065,-0.166385821 13.8602856,0.0532089868 15.024732,0.615203961 C15.0882275,0.645848718 15.149576,0.676744524 15.2087765,0.707765312 L16.3498531,0.245985389 C17.5250324,-0.229595524 18.7669753,0.76514418 18.5604512,2.01516474 C19.1200691,2.62992533 19.2088551,3.65710878 18.4525684,4.33359991 L17.2822346,5.38045234 C17.2965945,6.66768413 17.1200506,7.82178585 16.5779862,9.10824682 C15.6115994,11.4013269 14.2258383,13.1259023 12.5304734,14.3254682 C11.3321573,15.1733441 10.0500186,15.7117219 8.75788307,16.0014361 C7.92271487,16.1886921 7.21420875,16.2471151 6.6928953,16.2341053 C5.10151048,16.25207 3.63566844,15.91551 2.32783183,15.3430046 C1.549678,15.0023679 0.978013491,14.6504577 0.634467893,14.3850664 C-0.607501963,13.4256363 0.0995661735,11.4374399 1.66844449,11.47764 C1.96962758,11.4853574 2.25172979,11.4809419 2.51556822,11.4656347 C2.0159975,10.8733357 1.75082149,10.2777381 1.64313141,9.78763838 C1.60573012,9.61742435 1.59639572,9.44873126 1.6116731,9.28585587 C1.50799629,9.16077442 1.4113541,9.03099304 1.32177373,8.89673583 C0.686981544,7.94535079 0.49968625,6.96730569 0.552261366,6.13219071 C0.558330282,6.04974619 0.558330282,6.04974619 0.563796659,6.00037658 C0.592346162,5.75781865 0.670272704,5.53887441 0.784703619,5.34924761 C0.448534983,4.2783325 0.524846358,3.20145717 0.841553666,2.18756198 C0.944561056,1.85779789 1.05300499,1.59988446 1.14101017,1.42679716 C1.66536431,0.395505149 3.06946423,0.228129285 3.82155085,1.10726305 C5.00571952,2.49146884 6.17537175,3.31448288 7.29089981,3.71328148 C7.42929552,3.76275761 7.5622543,3.80431942 7.6894456,3.83877562 C8.0445351,1.59737007 9.51991691,0.256800926 10.9380583,0.136320456 Z M3.35706901,4.90460357 C3.357394,4.90457504 3.35569572,4.90477288 3.35353972,4.90505382 L3.35706901,4.90460357 Z" id="path-1"></path>
    </defs>
    <g id="Page-1" stroke="none" stroke-width="1" fill="none" fill-rule="evenodd">
        <g id="Homepage" transform="translate(-392.000000, -108.000000)">
            <g id="header-twitter" transform="translate(392.000000, 108.000000)">
                <mask id="mask-2" fill="white">
                    <use xlink:href="#path-1"></use>
                </mask>
                <use id="icon/social/twitter_24px" fill="#CEAB56" fill-rule="nonzero" xlink:href="#path-1"></use>
            </g>
        </g>
    </g>
</svg>