<?xml version="1.0" encoding="UTF-8"?>
<svg width="18px" height="18px" viewBox="0 0 18 18" version="1.1" xmlns="http://www.w3.org/2000/svg" xmlns:xlink="http://www.w3.org/1999/xlink">
    <title>header instagram</title>
    <g id="Page-1" stroke="none" stroke-width="1" fill="none" fill-rule="evenodd">
        <g id="Homepage" transform="translate(-352.000000, -107.000000)" fill="#CEAB56">
            <g id="header-instagram" transform="translate(352.000000, 107.000000)">
                <path d="M17.52744,3.1047567 C17.74992,3.67714851 17.90208,4.33139288 17.94588,5.28940726 C17.98956,6.24919766 18,6.5557277 18,9.00006 C18,11.4442603 17.98956,11.7507783 17.94588,12.7107247 C17.90208,13.6685711 17.75004,14.3228155 17.52744,14.8953393 C17.06004,16.1042274 16.10436,17.0599137 14.89536,17.5274368 C14.32284,17.7500383 13.66872,17.9020793 12.71076,17.9458796 C11.750976,17.9896799 11.444316,18 9.000132,18 C6.555948,18 6.249432,17.9896799 5.289504,17.9458796 C4.331496,17.9020793 3.677256,17.7500383 3.104868,17.5274368 C2.504328,17.3014753 1.960236,16.947233 1.510752,16.4893099 C1.0529028,16.0399069 0.6985932,15.4958233 0.4726872,14.8953393 C0.2502132,14.3228155 0.09805296,13.6685711 0.05438232,12.7107247 C0.010437012,11.7509223 0,11.4442603 0,8.999928 C0,6.5557277 0.010437012,6.24919766 0.05438232,5.28926326 C0.09791568,4.33139288 0.2499384,3.67714851 0.4722744,3.1046247 C0.6983184,2.50408069 1.0527648,1.96011707 1.51062,1.51063007 C1.960236,1.05277182 2.504196,0.698461056 3.104736,0.47255235 C3.677256,0.250078067 4.331364,0.0979163328 5.289372,0.0541080007 C6.249156,0.0104370816 6.555816,0 9,0 C11.444184,0 11.750844,0.0104370816 12.71064,0.0543826826 C13.6686,0.0979163328 14.32272,0.249940066 14.89524,0.472277549 C15.49584,0.698323055 16.03992,1.05277182 16.48932,1.51063007 C16.94724,1.96024907 17.3016,2.50421269 17.52744,3.1047567 Z M16.01604,14.3081754 C16.13916,13.9910133 16.2858,13.5144901 16.32588,12.6369242 C16.3692,11.6878859 16.37832,11.40334 16.37832,9.00006 C16.37832,6.59692398 16.36908,6.31223408 16.32588,5.36329176 C16.2858,4.4857499 16.13916,4.00921473 16.01592,3.69211261 C15.87168,3.30113801 15.64164,2.94751965 15.34272,2.65720171 C15.05232,2.35836372 14.6988,2.12834619 14.30796,1.98400923 C13.99068,1.86081641 13.51428,1.71415143 12.63672,1.67419116 C11.687688,1.63079887 11.403,1.62159481 9,1.62159481 C6.59688,1.62159481 6.312192,1.63079887 5.363256,1.67404716 C4.48572,1.71415143 4.009188,1.8606844 3.692088,1.98400923 C3.301116,2.12820219 2.9475,2.35823172 2.657184,2.65720171 C2.358348,2.94751965 2.128188,3.30113801 1.983852,3.69211261 C1.860672,4.00921473 1.71414,4.4857499 1.674036,5.36329176 C1.630788,6.31237808 1.621584,6.59692398 1.621584,9.000192 C1.621584,11.40334 1.630788,11.6880179 1.674036,12.6369242 C1.714008,13.5144901 1.860672,13.9910133 1.983852,14.3081754 C2.128188,14.699138 2.358216,15.0526604 2.657184,15.3429423 C2.9475,15.6418643 3.301116,15.8719058 3.691956,16.0162668 C4.009188,16.1393876 4.48572,16.2861486 5.363112,16.3261088 C6.31206,16.3694291 6.596604,16.3785492 9,16.3785492 C11.403264,16.3785492 11.68794,16.3694291 12.63672,16.3261088 C13.51428,16.2861486 13.9908,16.1393876 14.30796,16.0162668 C15.09288,15.7133848 15.71316,15.0931006 16.01604,14.3081754 Z" id="Shape"></path>
                <path d="M4.378128,9 C4.378128,6.44759498 6.447264,4.37830119 8.999664,4.37830119 C11.552196,4.37830119 13.62132,6.44759498 13.62132,9 C13.62132,11.552417 11.552196,13.6215308 8.999664,13.6215308 C6.447264,13.6215308 4.378128,11.552417 4.378128,9 Z M5.999844,8.999868 C5.999712,10.656755 7.34292,11.99984 8.999664,11.999984 C10.65654,11.999984 11.999748,10.656755 11.999748,8.999868 C11.999748,7.34311295 10.656672,6.000028 8.999796,5.999896 C7.34292,5.999896 5.999844,7.34311295 5.999844,8.999868 Z" id="Shape"></path>
                <path d="M14.88432,4.19583997 C14.88432,4.79226795 14.40072,5.27581117 13.80432,5.27581117 C13.2078,5.27581117 12.7242,4.79226795 12.7242,4.19583997 C12.7242,3.59928 13.2078,3.11574877 13.80432,3.11574877 C14.40072,3.11574877 14.88432,3.59928 14.88432,4.19583997 L14.88432,4.19583997 Z" id="Path" fill-rule="nonzero"></path>
            </g>
        </g>
    </g>
</svg>