<?xml version="1.0" encoding="UTF-8"?>
<svg width="22px" height="22px" viewBox="0 0 22 22" version="1.1" xmlns="http://www.w3.org/2000/svg" xmlns:xlink="http://www.w3.org/1999/xlink">
    <title>header linkedin</title>
    <g id="Page-1" stroke="none" stroke-width="1" fill="none" fill-rule="evenodd">
        <g id="Homepage" transform="translate(-435.000000, -105.000000)" fill="#CEAB56" fill-rule="nonzero">
            <g id="header-linkedin" transform="translate(435.000000, 105.000000)">
                <g id="icon/social/linkedin_24px" transform="translate(4.583333, 4.583333)">
                    <path d="M10.3348437,4.33927083 C13.2189062,4.33927083 13.75,6.23963542 13.75,8.70661458 L13.75,8.70661458 L13.75,13.7494271 L13.7465625,13.7494271 L13.7465625,13.75 L10.9020312,13.75 L10.9020312,9.28067708 C10.9020312,8.215625 10.8802604,6.84979167 9.41989583,6.84979167 C7.93776042,6.84979167 7.71088542,8.00708333 7.71088542,9.20390625 L7.71088542,9.20390625 L7.71088542,13.7494271 L4.86348958,13.7494271 L4.86348958,4.56958333 L7.59802083,4.56958333 L7.59802083,5.82140625 L7.638125,5.82140625 C8.01796875,5.10010417 8.94838542,4.33927083 10.3348437,4.33927083 Z M3.07770833,4.57015625 L3.07770833,13.75 L0.226875,13.75 L0.226875,4.57015625 L3.07770833,4.57015625 Z M1.65114583,7.66053887e-14 C2.56208333,7.66053887e-14 3.30171875,0.739635417 3.30229167,1.65114583 C3.30229167,2.56265625 2.56265625,3.31776042 1.65114583,3.31776042 C0.739635417,3.31776042 5.66213743e-14,2.56265625 5.66213743e-14,1.65114583 C5.66213743e-14,0.739635417 0.739635417,7.66053887e-14 1.65114583,7.66053887e-14 Z" id="Combined-Shape"></path>
                </g>
            </g>
        </g>
    </g>
</svg>