<?xml version="1.0" encoding="UTF-8"?>
<svg width="19px" height="14px" viewBox="0 0 19 14" version="1.1" xmlns="http://www.w3.org/2000/svg" xmlns:xlink="http://www.w3.org/1999/xlink">
    <title>header Youtube</title>
    <defs>
        <path d="M15.9147032,0.397068409 C16.9463214,0.683629002 17.6497043,1.38701198 17.9362649,2.41863011 C18.0598646,2.86548866 18.1430248,3.43412451 18.1968281,4.15236087 C18.2551777,4.81921346 18.2833333,5.42131087 18.2812156,5.90729413 L18.3333333,6.66666667 C18.3333333,8.51436467 18.2001265,9.94411785 17.9362649,10.9147032 C17.6497043,11.9463214 16.9463214,12.6497043 15.9138217,12.9365093 C15.4449028,13.0662102 14.6862462,13.1461826 13.5281402,13.1987945 C12.4669267,13.2559368 11.4595773,13.2833333 10.5230908,13.2827406 L9.16666667,13.3333333 C5.66739941,13.3333333 3.39983577,13.2030136 2.41863011,12.9362649 C1.38701198,12.6497043 0.683629002,11.9463214 0.396824066,10.9138217 C0.273468715,10.4678447 0.190308532,9.89920882 0.136505235,9.18097246 C0.0781556339,8.51411987 0.05,7.91202247 0.0521177501,7.42603921 L0,6.66666667 C0,4.81896867 0.133206818,3.38921548 0.397068409,2.41863011 C0.683629002,1.38701198 1.38701198,0.683629002 2.41951162,0.396824066 C2.88843049,0.267123104 3.64708708,0.187150756 4.80519311,0.134538799 C5.86640665,0.0773965322 6.87375606,0.05 7.81024249,0.050592698 L9.16666667,0 C12.6659339,0 14.9334976,0.130319749 15.9147032,0.397068409 Z M9.19809084,1.66607397 L7.84166667,1.71666667 C6.90380804,1.71666667 5.92633691,1.74325061 4.88783972,1.79914045 C3.84380564,1.84659654 3.17504626,1.91709255 2.86470322,2.00293159 C2.39632136,2.13303766 2.13303766,2.39632136 2.00414975,2.86027048 C1.78744792,3.65742362 1.66666667,4.95380911 1.66454892,6.60729413 L1.71666667,7.36666667 C1.71666667,7.86169548 1.74256732,8.41557108 1.79766609,9.04600838 C1.8448972,9.6757565 1.91363881,10.1458005 2.00293159,10.4686301 C2.13303766,10.937012 2.39632136,11.2002957 2.86027048,11.3291836 C3.63903721,11.5408872 5.82760059,11.6666667 9.13524249,11.6672594 L10.4916667,11.6166667 C11.4295253,11.6166667 12.4069964,11.5900827 13.4454936,11.5341929 C14.4895277,11.4867368 15.1582871,11.4162408 15.4686301,11.3304017 C15.937012,11.2002957 16.2002957,10.937012 16.3291836,10.4730629 C16.5458854,9.67590971 16.6666667,8.37952422 16.6687844,6.72603921 L16.6166667,5.96666667 C16.6166667,5.47163785 16.590766,4.91776225 16.5356672,4.28732496 C16.4884576,3.65786259 16.4197569,3.18795945 16.3302793,2.86426246 C16.2001305,2.39615619 15.9368664,2.13299723 15.4730629,2.00414975 C14.6942961,1.79244617 12.5057327,1.66666667 9.19809084,1.66607397 Z M7.48646399,4.75738901 C7.48646399,4.46355033 7.81005849,4.28501543 8.05926345,4.44495295 L8.05926345,4.44495295 L11.0869177,6.36792256 C11.3175253,6.51670164 11.3175253,6.85145457 11.0869177,6.99651418 L11.0869177,6.99651418 L8.05926345,8.92320327 C7.81005849,9.08314078 7.48646399,8.90460589 7.48646399,8.6107672 L7.48646399,8.6107672 Z" id="path-1"></path>
    </defs>
    <g id="Page-1" stroke="none" stroke-width="1" fill="none" fill-rule="evenodd">
        <g id="Homepage" transform="translate(-481.000000, -110.000000)">
            <g id="header-Youtube" transform="translate(481.000000, 110.000000)">
                <mask id="mask-2" fill="white">
                    <use xlink:href="#path-1"></use>
                </mask>
                <use id="icon/social/youtube_24px" fill="#CEAB56" xlink:href="#path-1"></use>
            </g>
        </g>
    </g>
</svg>