<?xml version="1.0" encoding="UTF-8"?>
<svg width="68px" height="77px" viewBox="0 0 68 77" version="1.1" xmlns="http://www.w3.org/2000/svg" xmlns:xlink="http://www.w3.org/1999/xlink">
    <title>individuel accident</title>
    <g id="Page-1" stroke="none" stroke-width="1" fill="none" fill-rule="evenodd">
        <g id="Homepage" transform="translate(-1234.000000, -976.000000)" fill="#CEAB56" fill-rule="nonzero">
            <g id="individuel-accident" transform="translate(1234.000000, 976.000000)">
                <path d="M61.7513443,57.9648437 L56.2240208,43.7160033 C55.4003843,41.5914916 53.9733257,39.788208 52.0977464,38.5015564 C50.222167,37.2149049 48.029271,36.5347595 45.7571902,36.5347595 L40.6905252,36.5347595 C40.2448945,36.0552369 39.7796121,35.5936889 39.2946781,35.1530151 L39.2946781,24.1726989 C39.2946781,20.8067627 37.6133036,17.8281556 35.0504935,16.0335693 C37.5872941,14.5358581 39.2946781,11.7694701 39.2946781,8.609375 C39.2946781,3.86227413 35.4446831,0 30.7126746,0 C25.980666,0 22.1306711,3.86227413 22.1306711,8.609375 C22.1306711,11.2493591 23.3224877,13.614502 25.193443,15.1951295 C23.3450292,16.0677796 21.7769409,17.5080872 20.7527417,19.3618164 C18.9742648,22.5793151 17.9425516,26.1777649 17.7333191,29.844635 C13.9301414,30.833252 10.4275188,32.7739563 7.55028194,35.5032349 C4.42450913,38.4690857 2.17728192,42.2258301 1.05251227,46.3670045 C0.83749979,47.1584778 1.30220418,47.9743041 2.09116122,48.1894226 C2.22120906,48.2253724 2.35183499,48.2421875 2.48072692,48.2421875 C3.13154419,48.2421875 3.72803042,47.8078919 3.90778551,47.1474609 C5.74521746,40.3813782 11.0604184,34.9663086 17.6922818,32.9403686 L17.6922818,37.3337708 C14.8520363,38.4424134 12.4002004,40.3123779 10.5558327,42.7940674 C8.44790121,45.6288757 7.33411341,49.0011901 7.33411341,52.546875 C7.33411341,61.5499573 14.6358678,68.875 23.6103269,68.875 C32.584786,68.875 39.8865404,61.5499573 39.8865404,52.546875 C39.8865404,45.0774537 34.8505089,38.6198425 27.753363,36.7562561 L27.753363,32.4851989 C37.1416633,34.4206849 44.0295765,42.7656556 44.0295765,52.546875 C44.0295765,63.842041 34.8695825,73.03125 23.6103269,73.03125 C14.5445454,73.03125 6.47175153,66.9325561 3.97830029,58.1996765 C3.75288405,57.4116822 2.9338715,56.9559326 2.14838232,57.181488 C1.36289315,57.4076233 0.908014561,58.229248 1.13343094,59.0172425 C2.50326844,63.8153686 5.44581829,68.1368714 9.41834735,71.1856384 C13.5226581,74.3352966 18.4297977,76 23.6103269,76 C30.6132602,76 36.9064212,72.8944092 41.194533,67.984375 L66.5203442,67.984375 C67.3376229,67.984375 68,67.3198853 68,66.5 L68,65.2029114 C68,61.5250244 65.2799766,58.4733581 61.7513443,57.9648437 Z M30.7126746,2.96875 C33.8130158,2.96875 36.3353665,5.49914551 36.3353665,8.609375 C36.3353665,11.7196045 33.8130158,14.25 30.7126746,14.25 C27.6123334,14.25 25.0899827,11.7196045 25.0899827,8.609375 C25.0899827,5.49914551 27.6123334,2.96875 30.7126746,2.96875 Z M36.9272288,52.546875 C36.9272288,59.9130859 30.9531186,65.90625 23.6103269,65.90625 C16.2675351,65.90625 10.2934249,59.9130859 10.2934249,52.546875 C10.2934249,47.3822937 13.1955154,42.7963867 17.6917038,40.5727234 L17.6917038,43.1953125 C17.6917038,45.9779358 19.9487568,48.2421875 22.7225334,48.2421875 C25.49631,48.2421875 27.753363,45.9779358 27.753363,43.1953125 L27.753363,39.8456116 C33.1598864,41.6117859 36.9272288,46.7015686 36.9272288,52.546875 Z M26.2737073,27.3617859 C25.4564286,27.3617859 24.7940515,28.0262757 24.7940515,28.8461609 L24.7940515,43.1953125 C24.7940515,44.3410645 23.8646427,45.2734375 22.7225334,45.2734375 C21.5804241,45.2734375 20.6510153,44.3410645 20.6510153,43.1953125 L20.6510153,38.3855896 C20.6510153,38.3815307 20.6510153,38.377472 20.6510153,38.3728333 L20.6510153,31.2321777 C20.6510153,27.5919799 21.5810021,23.9848327 23.3404053,20.8009643 C24.5616994,18.5912171 26.8846432,17.21875 29.4035261,17.21875 C33.2257774,17.21875 36.3353665,20.3382568 36.3353665,24.1726989 L36.3353665,32.8661498 C33.7858502,31.2031861 30.8849157,30.0232239 27.753363,29.4625244 L27.753363,28.8467408 C27.753363,28.0268555 27.090986,27.3617859 26.2737073,27.3617859 Z M46.9888881,52.546875 C46.9888881,51.9479065 46.9651905,51.3541565 46.9206851,50.765625 L47.0836785,50.765625 L53.5328968,65.015625 L43.4024568,65.015625 C45.6728036,61.4015198 46.9888881,57.1258239 46.9888881,52.546875 Z M56.7829376,65.015625 L49.3840808,48.6677857 C49.1442147,48.1372376 48.6176653,47.796875 48.037363,47.796875 L46.505688,47.796875 C45.8872382,44.7904358 44.6936876,41.9828796 43.0383227,39.5035095 L45.7571902,39.5035095 C49.193922,39.5035095 52.2202804,41.5793151 53.466428,44.7927552 L59.331876,59.9130859 C59.5532462,60.4836426 60.1006033,60.859375 60.7109613,60.859375 C63.0356393,60.859375 64.9389621,62.706726 65.0366425,65.015625 L56.7829376,65.015625 Z" id="Shape"></path>
                <path d="M2.5605468,53.5605468 C2.8394532,53.2816405 3,52.8943359 3,52.5 C3,52.1039063 2.8394532,51.7183593 2.5605468,51.439453 C2.2816407,51.1587891 1.8943359,51 1.5,51 C1.1056641,51 0.7183593,51.1587891 0.4394532,51.439453 C0.1605468,51.7183593 2.27373675e-13,52.1039063 2.27373675e-13,52.5 C2.27373675e-13,52.8943359 0.1605468,53.2816405 0.4394532,53.5605468 C0.7183593,53.8394531 1.1056641,54 1.5,54 C1.8943359,54 2.2816407,53.8394531 2.5605468,53.5605468 Z" id="Path"></path>
                <path d="M27.3505889,60.4525525 C27.643128,60.814086 28.0591452,61 28.4780476,61 C28.8155929,61 29.1548691,60.8788833 29.4329834,60.6318052 C31.7000181,58.6133955 33,55.6678375 33,52.5502937 C33,51.6939986 32.3387576,51 31.5228789,51 C30.7070004,51 30.0457578,51.6939986 30.0457578,52.5502937 C30.0457578,54.7558287 29.1260192,56.8390359 27.521381,58.2676073 C26.8993745,58.8211107 26.8232104,59.7997336 27.3505889,60.4525525 L27.3505889,60.4525525 Z" id="Path"></path>
                <path d="M23.5089935,60 C23.5055033,60 23.502013,60 23.4991043,60 L23.489215,60 C22.6666563,60 22,60.6714845 22,61.5 C22,62.3285157 22.6666563,63 23.489215,63 L23.5264453,63 C24.3484222,62.9923829 25.0063527,62.315625 24.9999537,61.4882812 C24.9935547,60.6638671 24.3263167,60 23.5089935,60 Z" id="Path"></path>
            </g>
        </g>
    </g>
</svg>