<svg id="lozeng" xmlns="http://www.w3.org/2000/svg" width="101" height="105" viewBox="0 0 101 105">
  <g id="Ellipse_1" data-name="Ellipse 1" transform="translate(0 53)" fill="#138cf5" stroke="#138cf5" stroke-width="1">
    <circle cx="1" cy="1" r="1" stroke="none"/>
    <circle cx="1" cy="1" r="0.5" fill="none"/>
  </g>
  <g id="Ellipse_8" data-name="Ellipse 8" transform="translate(36 53)" fill="#138cf5" stroke="#138cf5" stroke-width="1">
    <circle cx="1" cy="1" r="1" stroke="none"/>
    <circle cx="1" cy="1" r="0.5" fill="none"/>
  </g>
  <g id="Ellipse_19" data-name="Ellipse 19" transform="translate(36 44)" fill="#138cf5" stroke="#138cf5" stroke-width="1">
    <circle cx="1" cy="1" r="1" stroke="none"/>
    <circle cx="1" cy="1" r="0.5" fill="none"/>
  </g>
  <g id="Ellipse_58" data-name="Ellipse 58" transform="translate(65 62) rotate(180)" fill="#138cf5" stroke="#138cf5" stroke-width="1">
    <circle cx="1" cy="1" r="1" stroke="none"/>
    <circle cx="1" cy="1" r="0.5" fill="none"/>
  </g>
  <g id="Ellipse_28" data-name="Ellipse 28" transform="translate(36 35)" fill="#138cf5" stroke="#138cf5" stroke-width="1">
    <circle cx="1" cy="1" r="1" stroke="none"/>
    <circle cx="1" cy="1" r="0.5" fill="none"/>
  </g>
  <g id="Ellipse_59" data-name="Ellipse 59" transform="translate(65 71) rotate(180)" fill="#138cf5" stroke="#138cf5" stroke-width="1">
    <circle cx="1" cy="1" r="1" stroke="none"/>
    <circle cx="1" cy="1" r="0.5" fill="none"/>
  </g>
  <g id="Ellipse_31" data-name="Ellipse 31" transform="translate(36 26)" fill="#138cf5" stroke="#138cf5" stroke-width="1">
    <circle cx="1" cy="1" r="1" stroke="none"/>
    <circle cx="1" cy="1" r="0.5" fill="none"/>
  </g>
  <g id="Ellipse_60" data-name="Ellipse 60" transform="translate(65 80) rotate(180)" fill="#138cf5" stroke="#138cf5" stroke-width="1">
    <circle cx="1" cy="1" r="1" stroke="none"/>
    <circle cx="1" cy="1" r="0.5" fill="none"/>
  </g>
  <g id="Ellipse_37" data-name="Ellipse 37" transform="translate(36 17)" fill="#138cf5" stroke="#138cf5" stroke-width="1">
    <circle cx="1" cy="1" r="1" stroke="none"/>
    <circle cx="1" cy="1" r="0.5" fill="none"/>
  </g>
  <g id="Ellipse_61" data-name="Ellipse 61" transform="translate(65 89) rotate(180)" fill="#138cf5" stroke="#138cf5" stroke-width="1">
    <circle cx="1" cy="1" r="1" stroke="none"/>
    <circle cx="1" cy="1" r="0.5" fill="none"/>
  </g>
  <g id="Ellipse_12" data-name="Ellipse 12" transform="translate(72 53)" fill="#138cf5" stroke="#138cf5" stroke-width="1">
    <circle cx="1" cy="1" r="1" stroke="none"/>
    <circle cx="1" cy="1" r="0.5" fill="none"/>
  </g>
  <g id="Ellipse_13" data-name="Ellipse 13" transform="translate(72 44)" fill="#138cf5" stroke="#138cf5" stroke-width="1">
    <circle cx="1" cy="1" r="1" stroke="none"/>
    <circle cx="1" cy="1" r="0.5" fill="none"/>
  </g>
  <g id="Ellipse_48" data-name="Ellipse 48" transform="translate(29 62) rotate(180)" fill="#138cf5" stroke="#138cf5" stroke-width="1">
    <circle cx="1" cy="1" r="1" stroke="none"/>
    <circle cx="1" cy="1" r="0.5" fill="none"/>
  </g>
  <g id="Ellipse_23" data-name="Ellipse 23" transform="translate(72 35)" fill="#138cf5" stroke="#138cf5" stroke-width="1">
    <circle cx="1" cy="1" r="1" stroke="none"/>
    <circle cx="1" cy="1" r="0.5" fill="none"/>
  </g>
  <g id="Ellipse_49" data-name="Ellipse 49" transform="translate(29 71) rotate(180)" fill="#138cf5" stroke="#138cf5" stroke-width="1">
    <circle cx="1" cy="1" r="1" stroke="none"/>
    <circle cx="1" cy="1" r="0.5" fill="none"/>
  </g>
  <g id="Ellipse_36" data-name="Ellipse 36" transform="translate(72 26)" fill="#138cf5" stroke="#138cf5" stroke-width="1">
    <circle cx="1" cy="1" r="1" stroke="none"/>
    <circle cx="1" cy="1" r="0.5" fill="none"/>
  </g>
  <g id="Ellipse_55" data-name="Ellipse 55" transform="translate(29 80) rotate(180)" fill="#138cf5" stroke="#138cf5" stroke-width="1">
    <circle cx="1" cy="1" r="1" stroke="none"/>
    <circle cx="1" cy="1" r="0.5" fill="none"/>
  </g>
  <g id="Ellipse_4" data-name="Ellipse 4" transform="translate(18 53)" fill="#138cf5" stroke="#138cf5" stroke-width="1">
    <circle cx="1" cy="1" r="1" stroke="none"/>
    <circle cx="1" cy="1" r="0.5" fill="none"/>
  </g>
  <g id="Ellipse_21" data-name="Ellipse 21" transform="translate(18 44)" fill="#138cf5" stroke="#138cf5" stroke-width="1">
    <circle cx="1" cy="1" r="1" stroke="none"/>
    <circle cx="1" cy="1" r="0.5" fill="none"/>
  </g>
  <g id="Ellipse_71" data-name="Ellipse 71" transform="translate(83 62) rotate(180)" fill="#138cf5" stroke="#138cf5" stroke-width="1">
    <circle cx="1" cy="1" r="1" stroke="none"/>
    <circle cx="1" cy="1" r="0.5" fill="none"/>
  </g>
  <g id="Ellipse_30" data-name="Ellipse 30" transform="translate(18 35)" fill="#138cf5" stroke="#138cf5" stroke-width="1">
    <circle cx="1" cy="1" r="1" stroke="none"/>
    <circle cx="1" cy="1" r="0.5" fill="none"/>
  </g>
  <g id="Ellipse_72" data-name="Ellipse 72" transform="translate(83 71) rotate(180)" fill="#138cf5" stroke="#138cf5" stroke-width="1">
    <circle cx="1" cy="1" r="1" stroke="none"/>
    <circle cx="1" cy="1" r="0.5" fill="none"/>
  </g>
  <g id="Ellipse_5" data-name="Ellipse 5" transform="translate(54 53)" fill="#138cf5" stroke="#138cf5" stroke-width="1">
    <circle cx="1" cy="1" r="1" stroke="none"/>
    <circle cx="1" cy="1" r="0.5" fill="none"/>
  </g>
  <g id="Ellipse_14" data-name="Ellipse 14" transform="translate(54 44)" fill="#138cf5" stroke="#138cf5" stroke-width="1">
    <circle cx="1" cy="1" r="1" stroke="none"/>
    <circle cx="1" cy="1" r="0.5" fill="none"/>
  </g>
  <g id="Ellipse_53" data-name="Ellipse 53" transform="translate(47 62) rotate(180)" fill="#138cf5" stroke="#138cf5" stroke-width="1">
    <circle cx="1" cy="1" r="1" stroke="none"/>
    <circle cx="1" cy="1" r="0.5" fill="none"/>
  </g>
  <g id="Ellipse_26" data-name="Ellipse 26" transform="translate(54 35)" fill="#138cf5" stroke="#138cf5" stroke-width="1">
    <circle cx="1" cy="1" r="1" stroke="none"/>
    <circle cx="1" cy="1" r="0.5" fill="none"/>
  </g>
  <g id="Ellipse_54" data-name="Ellipse 54" transform="translate(47 71) rotate(180)" fill="#138cf5" stroke="#138cf5" stroke-width="1">
    <circle cx="1" cy="1" r="1" stroke="none"/>
    <circle cx="1" cy="1" r="0.5" fill="none"/>
  </g>
  <g id="Ellipse_34" data-name="Ellipse 34" transform="translate(54 26)" fill="#138cf5" stroke="#138cf5" stroke-width="1">
    <circle cx="1" cy="1" r="1" stroke="none"/>
    <circle cx="1" cy="1" r="0.5" fill="none"/>
  </g>
  <g id="Ellipse_56" data-name="Ellipse 56" transform="translate(47 80) rotate(180)" fill="#138cf5" stroke="#138cf5" stroke-width="1">
    <circle cx="1" cy="1" r="1" stroke="none"/>
    <circle cx="1" cy="1" r="0.5" fill="none"/>
  </g>
  <g id="Ellipse_38" data-name="Ellipse 38" transform="translate(54 17)" fill="#138cf5" stroke="#138cf5" stroke-width="1">
    <circle cx="1" cy="1" r="1" stroke="none"/>
    <circle cx="1" cy="1" r="0.5" fill="none"/>
  </g>
  <g id="Ellipse_62" data-name="Ellipse 62" transform="translate(47 89) rotate(180)" fill="#138cf5" stroke="#138cf5" stroke-width="1">
    <circle cx="1" cy="1" r="1" stroke="none"/>
    <circle cx="1" cy="1" r="0.5" fill="none"/>
  </g>
  <g id="Ellipse_42" data-name="Ellipse 42" transform="translate(54 17)" fill="#138cf5" stroke="#138cf5" stroke-width="1">
    <circle cx="1" cy="1" r="1" stroke="none"/>
    <circle cx="1" cy="1" r="0.5" fill="none"/>
  </g>
  <g id="Ellipse_63" data-name="Ellipse 63" transform="translate(47 89) rotate(180)" fill="#138cf5" stroke="#138cf5" stroke-width="1">
    <circle cx="1" cy="1" r="1" stroke="none"/>
    <circle cx="1" cy="1" r="0.5" fill="none"/>
  </g>
  <g id="Ellipse_44" data-name="Ellipse 44" transform="translate(54 8)" fill="#138cf5" stroke="#138cf5" stroke-width="1">
    <circle cx="1" cy="1" r="1" stroke="none"/>
    <circle cx="1" cy="1" r="0.5" fill="none"/>
  </g>
  <g id="Ellipse_65" data-name="Ellipse 65" transform="translate(47 98) rotate(180)" fill="#138cf5" stroke="#138cf5" stroke-width="1">
    <circle cx="1" cy="1" r="1" stroke="none"/>
    <circle cx="1" cy="1" r="0.5" fill="none"/>
  </g>
  <g id="Ellipse_45" data-name="Ellipse 45" transform="translate(49)" fill="#138cf5" stroke="#138cf5" stroke-width="1">
    <circle cx="1" cy="1" r="1" stroke="none"/>
    <circle cx="1" cy="1" r="0.5" fill="none"/>
  </g>
  <g id="Ellipse_70" data-name="Ellipse 70" transform="translate(52 105) rotate(180)" fill="#138cf5" stroke="#138cf5" stroke-width="1">
    <circle cx="1" cy="1" r="1" stroke="none"/>
    <circle cx="1" cy="1" r="0.5" fill="none"/>
  </g>
  <g id="Ellipse_9" data-name="Ellipse 9" transform="translate(90 53)" fill="#138cf5" stroke="#138cf5" stroke-width="1">
    <circle cx="1" cy="1" r="1" stroke="none"/>
    <circle cx="1" cy="1" r="0.5" fill="none"/>
  </g>
  <g id="Ellipse_15" data-name="Ellipse 15" transform="translate(90 44)" fill="#138cf5" stroke="#138cf5" stroke-width="1">
    <circle cx="1" cy="1" r="1" stroke="none"/>
    <circle cx="1" cy="1" r="0.5" fill="none"/>
  </g>
  <g id="Ellipse_46" data-name="Ellipse 46" transform="translate(11 62) rotate(180)" fill="#138cf5" stroke="#138cf5" stroke-width="1">
    <circle cx="1" cy="1" r="1" stroke="none"/>
    <circle cx="1" cy="1" r="0.5" fill="none"/>
  </g>
  <g id="Ellipse_2" data-name="Ellipse 2" transform="translate(9 53)" fill="#138cf5" stroke="#138cf5" stroke-width="1">
    <circle cx="1" cy="1" r="1" stroke="none"/>
    <circle cx="1" cy="1" r="0.5" fill="none"/>
  </g>
  <g id="Ellipse_22" data-name="Ellipse 22" transform="translate(9 44)" fill="#138cf5" stroke="#138cf5" stroke-width="1">
    <circle cx="1" cy="1" r="1" stroke="none"/>
    <circle cx="1" cy="1" r="0.5" fill="none"/>
  </g>
  <g id="Ellipse_73" data-name="Ellipse 73" transform="translate(92 62) rotate(180)" fill="#138cf5" stroke="#138cf5" stroke-width="1">
    <circle cx="1" cy="1" r="1" stroke="none"/>
    <circle cx="1" cy="1" r="0.5" fill="none"/>
  </g>
  <g id="Ellipse_7" data-name="Ellipse 7" transform="translate(45 53)" fill="#138cf5" stroke="#138cf5" stroke-width="1">
    <circle cx="1" cy="1" r="1" stroke="none"/>
    <circle cx="1" cy="1" r="0.5" fill="none"/>
  </g>
  <g id="Ellipse_18" data-name="Ellipse 18" transform="translate(45 44)" fill="#138cf5" stroke="#138cf5" stroke-width="1">
    <circle cx="1" cy="1" r="1" stroke="none"/>
    <circle cx="1" cy="1" r="0.5" fill="none"/>
  </g>
  <g id="Ellipse_74" data-name="Ellipse 74" transform="translate(56 62) rotate(180)" fill="#138cf5" stroke="#138cf5" stroke-width="1">
    <circle cx="1" cy="1" r="1" stroke="none"/>
    <circle cx="1" cy="1" r="0.5" fill="none"/>
  </g>
  <g id="Ellipse_77" data-name="Ellipse 77" transform="translate(56 80) rotate(180)" fill="#138cf5" stroke="#138cf5" stroke-width="1">
    <circle cx="1" cy="1" r="1" stroke="none"/>
    <circle cx="1" cy="1" r="0.5" fill="none"/>
  </g>
  <g id="Ellipse_27" data-name="Ellipse 27" transform="translate(45 35)" fill="#138cf5" stroke="#138cf5" stroke-width="1">
    <circle cx="1" cy="1" r="1" stroke="none"/>
    <circle cx="1" cy="1" r="0.5" fill="none"/>
  </g>
  <g id="Ellipse_75" data-name="Ellipse 75" transform="translate(56 71) rotate(180)" fill="#138cf5" stroke="#138cf5" stroke-width="1">
    <circle cx="1" cy="1" r="1" stroke="none"/>
    <circle cx="1" cy="1" r="0.5" fill="none"/>
  </g>
  <g id="Ellipse_76" data-name="Ellipse 76" transform="translate(56 89) rotate(180)" fill="#138cf5" stroke="#138cf5" stroke-width="1">
    <circle cx="1" cy="1" r="1" stroke="none"/>
    <circle cx="1" cy="1" r="0.5" fill="none"/>
  </g>
  <g id="Ellipse_32" data-name="Ellipse 32" transform="translate(45 26)" fill="#138cf5" stroke="#138cf5" stroke-width="1">
    <circle cx="1" cy="1" r="1" stroke="none"/>
    <circle cx="1" cy="1" r="0.5" fill="none"/>
  </g>
  <g id="Ellipse_39" data-name="Ellipse 39" transform="translate(45 17)" fill="#138cf5" stroke="#138cf5" stroke-width="1">
    <circle cx="1" cy="1" r="1" stroke="none"/>
    <circle cx="1" cy="1" r="0.5" fill="none"/>
  </g>
  <g id="Ellipse_41" data-name="Ellipse 41" transform="translate(45 17)" fill="#138cf5" stroke="#138cf5" stroke-width="1">
    <circle cx="1" cy="1" r="1" stroke="none"/>
    <circle cx="1" cy="1" r="0.5" fill="none"/>
  </g>
  <g id="Ellipse_43" data-name="Ellipse 43" transform="translate(45 8)" fill="#138cf5" stroke="#138cf5" stroke-width="1">
    <circle cx="1" cy="1" r="1" stroke="none"/>
    <circle cx="1" cy="1" r="0.5" fill="none"/>
  </g>
  <g id="Ellipse_66" data-name="Ellipse 66" transform="translate(56 98) rotate(180)" fill="#138cf5" stroke="#138cf5" stroke-width="1">
    <circle cx="1" cy="1" r="1" stroke="none"/>
    <circle cx="1" cy="1" r="0.5" fill="none"/>
  </g>
  <g id="Ellipse_11" data-name="Ellipse 11" transform="translate(81 53)" fill="#138cf5" stroke="#138cf5" stroke-width="1">
    <circle cx="1" cy="1" r="1" stroke="none"/>
    <circle cx="1" cy="1" r="0.5" fill="none"/>
  </g>
  <g id="Ellipse_16" data-name="Ellipse 16" transform="translate(81 44)" fill="#138cf5" stroke="#138cf5" stroke-width="1">
    <circle cx="1" cy="1" r="1" stroke="none"/>
    <circle cx="1" cy="1" r="0.5" fill="none"/>
  </g>
  <g id="Ellipse_47" data-name="Ellipse 47" transform="translate(20 62) rotate(180)" fill="#138cf5" stroke="#138cf5" stroke-width="1">
    <circle cx="1" cy="1" r="1" stroke="none"/>
    <circle cx="1" cy="1" r="0.5" fill="none"/>
  </g>
  <g id="Ellipse_24" data-name="Ellipse 24" transform="translate(81 35)" fill="#138cf5" stroke="#138cf5" stroke-width="1">
    <circle cx="1" cy="1" r="1" stroke="none"/>
    <circle cx="1" cy="1" r="0.5" fill="none"/>
  </g>
  <g id="Ellipse_50" data-name="Ellipse 50" transform="translate(20 71) rotate(180)" fill="#138cf5" stroke="#138cf5" stroke-width="1">
    <circle cx="1" cy="1" r="1" stroke="none"/>
    <circle cx="1" cy="1" r="0.5" fill="none"/>
  </g>
  <g id="Ellipse_3" data-name="Ellipse 3" transform="translate(27 53)" fill="#138cf5" stroke="#138cf5" stroke-width="1">
    <circle cx="1" cy="1" r="1" stroke="none"/>
    <circle cx="1" cy="1" r="0.5" fill="none"/>
  </g>
  <g id="Ellipse_20" data-name="Ellipse 20" transform="translate(27 44)" fill="#138cf5" stroke="#138cf5" stroke-width="1">
    <circle cx="1" cy="1" r="1" stroke="none"/>
    <circle cx="1" cy="1" r="0.5" fill="none"/>
  </g>
  <g id="Ellipse_67" data-name="Ellipse 67" transform="translate(74 62) rotate(180)" fill="#138cf5" stroke="#138cf5" stroke-width="1">
    <circle cx="1" cy="1" r="1" stroke="none"/>
    <circle cx="1" cy="1" r="0.5" fill="none"/>
  </g>
  <g id="Ellipse_29" data-name="Ellipse 29" transform="translate(27 35)" fill="#138cf5" stroke="#138cf5" stroke-width="1">
    <circle cx="1" cy="1" r="1" stroke="none"/>
    <circle cx="1" cy="1" r="0.5" fill="none"/>
  </g>
  <g id="Ellipse_68" data-name="Ellipse 68" transform="translate(74 71) rotate(180)" fill="#138cf5" stroke="#138cf5" stroke-width="1">
    <circle cx="1" cy="1" r="1" stroke="none"/>
    <circle cx="1" cy="1" r="0.5" fill="none"/>
  </g>
  <g id="Ellipse_33" data-name="Ellipse 33" transform="translate(27 26)" fill="#138cf5" stroke="#138cf5" stroke-width="1">
    <circle cx="1" cy="1" r="1" stroke="none"/>
    <circle cx="1" cy="1" r="0.5" fill="none"/>
  </g>
  <g id="Ellipse_69" data-name="Ellipse 69" transform="translate(74 80) rotate(180)" fill="#138cf5" stroke="#138cf5" stroke-width="1">
    <circle cx="1" cy="1" r="1" stroke="none"/>
    <circle cx="1" cy="1" r="0.5" fill="none"/>
  </g>
  <g id="Ellipse_6" data-name="Ellipse 6" transform="translate(63 53)" fill="#138cf5" stroke="#138cf5" stroke-width="1">
    <circle cx="1" cy="1" r="1" stroke="none"/>
    <circle cx="1" cy="1" r="0.5" fill="none"/>
  </g>
  <g id="Ellipse_17" data-name="Ellipse 17" transform="translate(63 44)" fill="#138cf5" stroke="#138cf5" stroke-width="1">
    <circle cx="1" cy="1" r="1" stroke="none"/>
    <circle cx="1" cy="1" r="0.5" fill="none"/>
  </g>
  <g id="Ellipse_51" data-name="Ellipse 51" transform="translate(38 62) rotate(180)" fill="#138cf5" stroke="#138cf5" stroke-width="1">
    <circle cx="1" cy="1" r="1" stroke="none"/>
    <circle cx="1" cy="1" r="0.5" fill="none"/>
  </g>
  <g id="Ellipse_25" data-name="Ellipse 25" transform="translate(63 35)" fill="#138cf5" stroke="#138cf5" stroke-width="1">
    <circle cx="1" cy="1" r="1" stroke="none"/>
    <circle cx="1" cy="1" r="0.5" fill="none"/>
  </g>
  <g id="Ellipse_52" data-name="Ellipse 52" transform="translate(38 71) rotate(180)" fill="#138cf5" stroke="#138cf5" stroke-width="1">
    <circle cx="1" cy="1" r="1" stroke="none"/>
    <circle cx="1" cy="1" r="0.5" fill="none"/>
  </g>
  <g id="Ellipse_35" data-name="Ellipse 35" transform="translate(63 26)" fill="#138cf5" stroke="#138cf5" stroke-width="1">
    <circle cx="1" cy="1" r="1" stroke="none"/>
    <circle cx="1" cy="1" r="0.5" fill="none"/>
  </g>
  <g id="Ellipse_57" data-name="Ellipse 57" transform="translate(38 80) rotate(180)" fill="#138cf5" stroke="#138cf5" stroke-width="1">
    <circle cx="1" cy="1" r="1" stroke="none"/>
    <circle cx="1" cy="1" r="0.5" fill="none"/>
  </g>
  <g id="Ellipse_40" data-name="Ellipse 40" transform="translate(63 17)" fill="#138cf5" stroke="#138cf5" stroke-width="1">
    <circle cx="1" cy="1" r="1" stroke="none"/>
    <circle cx="1" cy="1" r="0.5" fill="none"/>
  </g>
  <g id="Ellipse_64" data-name="Ellipse 64" transform="translate(38 89) rotate(180)" fill="#138cf5" stroke="#138cf5" stroke-width="1">
    <circle cx="1" cy="1" r="1" stroke="none"/>
    <circle cx="1" cy="1" r="0.5" fill="none"/>
  </g>
  <g id="Ellipse_10" data-name="Ellipse 10" transform="translate(99 53)" fill="#138cf5" stroke="#138cf5" stroke-width="1">
    <circle cx="1" cy="1" r="1" stroke="none"/>
    <circle cx="1" cy="1" r="0.5" fill="none"/>
  </g>
</svg>
