<?xml version="1.0" encoding="UTF-8"?>
<svg width="43px" height="43px" viewBox="0 0 43 43" version="1.1" xmlns="http://www.w3.org/2000/svg" xmlns:xlink="http://www.w3.org/1999/xlink">
    <title>mail</title>
    <g id="Page-1" stroke="none" stroke-width="1" fill="none" fill-rule="evenodd">
        <g id="Homepage" transform="translate(-535.000000, -3523.000000)" fill-rule="nonzero">
            <g id="mail" transform="translate(535.000000, 3523.000000)">
                <path d="M32.494824,41.0888889 L32.4829538,41.0888889 C31.9585734,41.0888889 31.5333333,41.5167867 31.5333333,42.0444444 C31.5333333,42.5721022 31.9585734,43 32.4829538,43 L32.494824,43 C33.0192044,43 33.4444444,42.5721022 33.4444444,42.0444444 C33.4444444,41.5167867 33.0192044,41.0888889 32.494824,41.0888889 Z" id="Path" fill="#22CABE"></path>
                <path d="M42.7519102,14.1817695 L36.7851562,8.2570918 L36.7851562,3.359375 C36.7851562,1.50701562 35.2781406,0 33.4257812,0 L9.57421875,0 C7.72185938,0 6.21484375,1.50701562 6.21484375,3.359375 L6.21484375,8.21501562 L0.245990234,14.1837852 C0.0885195313,14.3414238 0,14.5549961 0,14.7777227 L0,36.3232422 C0,40.0048652 2.99521875,43 6.67675781,43 L27.7091328,43 C28.1728945,43 28.5489766,42.623918 28.5489766,42.1601562 C28.5489766,41.6963945 28.1728945,41.3203125 27.7091328,41.3203125 L6.67675781,41.3203125 C5.69355273,41.3203125 4.77661133,41.0337578 4.0027793,40.5414414 L5.57723437,38.9669863 L18.4763945,38.9669863 C18.9401562,38.9669863 19.3162383,38.5909043 19.3162383,38.1271426 C19.3162383,37.6633809 18.9401562,37.2872988 18.4763945,37.2872988 L7.25683789,37.2872988 L17.274998,27.2691387 C19.6047246,24.9394961 23.3953594,24.9394961 25.724918,27.2691387 L38.9971367,40.5414414 C38.2233887,41.0337578 37.3064473,41.3203125 36.3232422,41.3203125 L35.1894531,41.3203125 C34.7256914,41.3203125 34.3496094,41.6963945 34.3496094,42.1601562 C34.3496094,42.623918 34.7256914,43 35.1894531,43 L36.3232422,43 C38.0339199,43 39.5957773,42.3527324 40.7784453,41.291002 C40.8074199,41.2687461 40.8356387,41.2452305 40.8621777,41.2186914 C40.8732637,41.2076055 40.8830898,41.1956797 40.8935039,41.1840898 C42.1887949,39.9654766 43,38.237834 43,36.3232422 L43,14.7777227 C43,14.5539883 42.9107246,14.3394082 42.7519102,14.1817695 Z M36.7851562,10.6241914 L40.9703496,14.7798223 L36.7851562,18.9650156 L36.7851562,10.6241914 Z M6.21484375,10.5905137 L6.21484375,18.9650156 L2.02763477,14.7777227 L6.21484375,10.5905137 Z M2.75460352,39.4140352 C2.08239258,38.5628535 1.6796875,37.4895332 1.6796875,36.3232422 L1.6796875,16.8053574 L13.5214844,28.6472383 L2.75460352,39.4140352 Z M26.912709,26.0814316 C23.9281563,23.0970469 19.0718437,23.0970469 16.087291,26.0814316 L14.7092754,27.4594473 L7.89453125,20.6447031 L7.89453125,3.359375 C7.89453125,2.43319531 8.64803906,1.6796875 9.57421875,1.6796875 L33.4257812,1.6796875 C34.3519609,1.6796875 35.1054688,2.43319531 35.1054688,3.359375 L35.1054688,20.6447031 L28.2907246,27.4594473 L26.912709,26.0814316 Z M41.3203125,36.3232422 C41.3203125,37.4895332 40.9176074,38.5629375 40.2453125,39.4141191 L29.4785156,28.6472383 L41.3203125,16.8053574 L41.3203125,36.3232422 Z" id="Shape" fill="#00ADF1"></path>
                <path d="M22.060832,6.68888889 L13.2947236,6.68888889 C12.8129283,6.68888889 12.4222222,7.11678667 12.4222222,7.64444444 C12.4222222,8.17210222 12.8129283,8.6 13.2947236,8.6 L22.060832,8.6 C22.5426272,8.6 22.9333333,8.17210222 22.9333333,7.64444444 C22.9333333,7.11678667 22.5426272,6.68888889 22.060832,6.68888889 Z" id="Path" fill="#22CABE"></path>
                <path d="M27.4320889,6.96886667 C27.2534,6.79113333 27.0068667,6.68888889 26.7555556,6.68888889 C26.5042444,6.68888889 26.2577111,6.79103778 26.0799778,6.96886667 C25.9022444,7.14669556 25.8,7.39313333 25.8,7.64444444 C25.8,7.89575556 25.9021489,8.14228889 26.0799778,8.31992667 C26.2586667,8.49775556 26.5042444,8.6 26.7555556,8.6 C27.0068667,8.6 27.2534,8.49775556 27.4320889,8.31992667 C27.6097267,8.14228889 27.7111111,7.89575556 27.7111111,7.64444444 C27.7111111,7.39313333 27.6097267,7.1466 27.4320889,6.96886667 Z" id="Path" fill="#22CABE"></path>
                <path d="M29.8003122,12.4222222 L15.110799,12.4222222 C14.6814824,12.4222222 14.3333333,12.85012 14.3333333,13.3777778 C14.3333333,13.9054356 14.6814824,14.3333333 15.110799,14.3333333 L29.8003122,14.3333333 C30.2296287,14.3333333 30.5777778,13.9054356 30.5777778,13.3777778 C30.5777778,12.85012 30.2296287,12.4222222 29.8003122,12.4222222 Z" id="Path" fill="#22CABE"></path>
                <path d="M30.7558714,20.0666667 L16.0663508,20.0666667 C15.6370363,20.0666667 15.2888889,20.4945644 15.2888889,21.0222222 C15.2888889,21.54988 15.6370363,21.9777778 16.0663508,21.9777778 L30.7557937,21.9777778 C31.1851859,21.9777778 31.5333333,21.54988 31.5333333,21.0222222 C31.5333333,20.4945644 31.1851859,20.0666667 30.7558714,20.0666667 Z" id="Path" fill="#22CABE"></path>
            </g>
        </g>
    </g>
</svg>