<?xml version="1.0" encoding="UTF-8"?>
<svg width="76px" height="76px" viewBox="0 0 76 76" version="1.1" xmlns="http://www.w3.org/2000/svg" xmlns:xlink="http://www.w3.org/1999/xlink">
    <title>MRH</title>
    <g id="Page-1" stroke="none" stroke-width="1" fill="none" fill-rule="evenodd">
        <g id="Homepage" transform="translate(-550.000000, -1289.000000)" fill="#CEAB56" fill-rule="nonzero">
            <g id="MRH" transform="translate(550.000000, 1289.000000)">
                <path d="M74.7333333,22.8 L58.2666667,22.8 L58.2666667,1.26666667 C58.2666667,0.5662 57.6992,0 57,0 L19,0 C18.3008,0 17.7333333,0.5662 17.7333333,1.26666667 L17.7333333,22.8 L1.26666667,22.8 C0.567466667,22.8 0,23.3662 0,24.0666667 L0,74.7333333 C0,75.4338 0.567466667,76 1.26666667,76 L74.7333333,76 C75.4325333,76 76,75.4338 76,74.7333333 L76,24.0666667 C76,23.3662 75.4325333,22.8 74.7333333,22.8 Z M2.53333333,25.3333333 L17.7333333,25.3333333 L17.7333333,73.4666667 L2.53333333,73.4666667 L2.53333333,25.3333333 Z M41.8,60.8 L41.8,73.4666667 L34.2,73.4666667 L34.2,60.8 L41.8,60.8 Z M55.7333333,73.4666667 L44.3333333,73.4666667 L44.3333333,60.8 L46.8666667,60.8 L46.8666667,58.2666667 L29.1333333,58.2666667 L29.1333333,60.8 L31.6666667,60.8 L31.6666667,73.4666667 L20.2666667,73.4666667 L20.2666667,2.53333333 L55.7333333,2.53333333 L55.7333333,73.4666667 Z M73.4666667,73.4666667 L58.2666667,73.4666667 L58.2666667,25.3333333 L73.4666667,25.3333333 L73.4666667,73.4666667 Z" id="Shape"></path>
                <path d="M62.25,38 L69.75,38 C70.44,38 71,37.44125 71,36.75 L71,29.25 C71,28.55875 70.44,28 69.75,28 L62.25,28 C61.56,28 61,28.55875 61,29.25 L61,36.75 C61,37.44125 61.56,38 62.25,38 Z M63.5,30.5 L68.5,30.5 L68.5,35.5 L63.5,35.5 L63.5,30.5 Z" id="Shape"></path>
                <path d="M62.25,51 L69.75,51 C70.44,51 71,50.44125 71,49.75 L71,42.25 C71,41.55875 70.44,41 69.75,41 L62.25,41 C61.56,41 61,41.55875 61,42.25 L61,49.75 C61,50.44125 61.56,51 62.25,51 Z M63.5,43.5 L68.5,43.5 L68.5,48.5 L63.5,48.5 L63.5,43.5 Z" id="Shape"></path>
                <path d="M62.25,64 L69.75,64 C70.44,64 71,63.44125 71,62.75 L71,55.25 C71,54.55875 70.44,54 69.75,54 L62.25,54 C61.56,54 61,54.55875 61,55.25 L61,62.75 C61,63.44125 61.56,64 62.25,64 Z M63.5,56.5 L68.5,56.5 L68.5,61.5 L63.5,61.5 L63.5,56.5 Z" id="Shape"></path>
                <path d="M13.75,28 L6.25,28 C5.56,28 5,28.55875 5,29.25 L5,36.75 C5,37.44125 5.56,38 6.25,38 L13.75,38 C14.44,38 15,37.44125 15,36.75 L15,29.25 C15,28.55875 14.44,28 13.75,28 Z M12.5,35.5 L7.5,35.5 L7.5,30.5 L12.5,30.5 L12.5,35.5 Z" id="Shape"></path>
                <path d="M24.3333333,34 L29.6666667,34 C30.4026667,34 31,33.404 31,32.6666667 L31,27.3333333 C31,26.596 30.4026667,26 29.6666667,26 L24.3333333,26 C23.5973333,26 23,26.596 23,27.3333333 L23,32.6666667 C23,33.404 23.5973333,34 24.3333333,34 Z M25.6666667,28.6666667 L28.3333333,28.6666667 L28.3333333,31.3333333 L25.6666667,31.3333333 L25.6666667,28.6666667 Z" id="Shape"></path>
                <path d="M40.6666667,26 L35.3333333,26 C34.5973333,26 34,26.596 34,27.3333333 L34,32.6666667 C34,33.404 34.5973333,34 35.3333333,34 L40.6666667,34 C41.4026667,34 42,33.404 42,32.6666667 L42,27.3333333 C42,26.596 41.4026667,26 40.6666667,26 Z M39.3333333,31.3333333 L36.6666667,31.3333333 L36.6666667,28.6666667 L39.3333333,28.6666667 L39.3333333,31.3333333 Z" id="Shape"></path>
                <path d="M45,27.3333333 L45,32.6666667 C45,33.404 45.5973333,34 46.3333333,34 L51.6666667,34 C52.4026667,34 53,33.404 53,32.6666667 L53,27.3333333 C53,26.596 52.4026667,26 51.6666667,26 L46.3333333,26 C45.5973333,26 45,26.596 45,27.3333333 Z M47.6666667,28.6666667 L50.3333333,28.6666667 L50.3333333,31.3333333 L47.6666667,31.3333333 L47.6666667,28.6666667 Z" id="Shape"></path>
                <path d="M24.3333333,44 L29.6666667,44 C30.4026667,44 31,43.404 31,42.6666667 L31,37.3333333 C31,36.596 30.4026667,36 29.6666667,36 L24.3333333,36 C23.5973333,36 23,36.596 23,37.3333333 L23,42.6666667 C23,43.404 23.5973333,44 24.3333333,44 Z M25.6666667,38.6666667 L28.3333333,38.6666667 L28.3333333,41.3333333 L25.6666667,41.3333333 L25.6666667,38.6666667 Z" id="Shape"></path>
                <path d="M40.6666667,36 L35.3333333,36 C34.5973333,36 34,36.596 34,37.3333333 L34,42.6666667 C34,43.404 34.5973333,44 35.3333333,44 L40.6666667,44 C41.4026667,44 42,43.404 42,42.6666667 L42,37.3333333 C42,36.596 41.4026667,36 40.6666667,36 Z M39.3333333,41.3333333 L36.6666667,41.3333333 L36.6666667,38.6666667 L39.3333333,38.6666667 L39.3333333,41.3333333 Z" id="Shape"></path>
                <path d="M51.6666667,36 L46.3333333,36 C45.5973333,36 45,36.596 45,37.3333333 L45,42.6666667 C45,43.404 45.5973333,44 46.3333333,44 L51.6666667,44 C52.4026667,44 53,43.404 53,42.6666667 L53,37.3333333 C53,36.596 52.4026667,36 51.6666667,36 Z M50.3333333,41.3333333 L47.6666667,41.3333333 L47.6666667,38.6666667 L50.3333333,38.6666667 L50.3333333,41.3333333 Z" id="Shape"></path>
                <path d="M24.3333333,54 L29.6666667,54 C30.4026667,54 31,53.404 31,52.6666667 L31,47.3333333 C31,46.596 30.4026667,46 29.6666667,46 L24.3333333,46 C23.5973333,46 23,46.596 23,47.3333333 L23,52.6666667 C23,53.404 23.5973333,54 24.3333333,54 Z M25.6666667,48.6666667 L28.3333333,48.6666667 L28.3333333,51.3333333 L25.6666667,51.3333333 L25.6666667,48.6666667 Z" id="Shape"></path>
                <path d="M40.6666667,46 L35.3333333,46 C34.5973333,46 34,46.596 34,47.3333333 L34,52.6666667 C34,53.404 34.5973333,54 35.3333333,54 L40.6666667,54 C41.4026667,54 42,53.404 42,52.6666667 L42,47.3333333 C42,46.596 41.4026667,46 40.6666667,46 Z M39.3333333,51.3333333 L36.6666667,51.3333333 L36.6666667,48.6666667 L39.3333333,48.6666667 L39.3333333,51.3333333 Z" id="Shape"></path>
                <path d="M51.6666667,46 L46.3333333,46 C45.5973333,46 45,46.596 45,47.3333333 L45,52.6666667 C45,53.404 45.5973333,54 46.3333333,54 L51.6666667,54 C52.4026667,54 53,53.404 53,52.6666667 L53,47.3333333 C53,46.596 52.4026667,46 51.6666667,46 Z M50.3333333,51.3333333 L47.6666667,51.3333333 L47.6666667,48.6666667 L50.3333333,48.6666667 L50.3333333,51.3333333 Z" id="Shape"></path>
                <path d="M13.75,41 L6.25,41 C5.56,41 5,41.55875 5,42.25 L5,49.75 C5,50.44125 5.56,51 6.25,51 L13.75,51 C14.44,51 15,50.44125 15,49.75 L15,42.25 C15,41.55875 14.44,41 13.75,41 Z M12.5,48.5 L7.5,48.5 L7.5,43.5 L12.5,43.5 L12.5,48.5 Z" id="Shape"></path>
                <path d="M13.75,54 L6.25,54 C5.56,54 5,54.55875 5,55.25 L5,62.75 C5,63.44125 5.56,64 6.25,64 L13.75,64 C14.44,64 15,63.44125 15,62.75 L15,55.25 C15,54.55875 14.44,54 13.75,54 Z M12.5,61.5 L7.5,61.5 L7.5,56.5 L12.5,56.5 L12.5,61.5 Z" id="Shape"></path>
                <polygon id="Path" points="51 69 54 69 54 72 51 72"></polygon>
                <polygon id="Path" points="51 64 54 64 54 67 51 67"></polygon>
                <polygon id="Path" points="51 58 54 58 54 61 51 61"></polygon>
            </g>
        </g>
    </g>
</svg>