<?xml version="1.0" encoding="UTF-8"?>
<svg width="46px" height="46px" viewBox="0 0 46 46" version="1.1" xmlns="http://www.w3.org/2000/svg" xmlns:xlink="http://www.w3.org/1999/xlink">
    <title>phone-call</title>
    <g id="Page-1" stroke="none" stroke-width="1" fill="none" fill-rule="evenodd">
        <g id="Homepage" transform="translate(-540.000000, -3605.000000)" fill-rule="nonzero">
            <g id="phone-call" transform="translate(540.044838, 3605.572443)">
                <path d="M35.3113197,28.0599497 C34.3946017,27.0870554 33.2888697,26.5668941 32.1169828,26.5668941 C30.9545466,26.5668941 29.8393639,27.0774228 28.8848431,28.0503171 L25.8984216,31.0845913 C25.6527034,30.9497346 25.4069852,30.8245106 25.1707176,30.6992866 C24.8304924,30.5258995 24.5091686,30.362145 24.2350983,30.1887579 C21.4376908,28.377826 18.8954523,26.017835 16.4571715,22.9642956 C15.2758339,21.4423422 14.481975,20.1612042 13.9054822,18.8608009 C14.6804397,18.1383547 15.398693,17.3870106 16.0980448,16.6645644 C16.3626645,16.3948511 16.6272841,16.1155052 16.8919037,15.845792 C18.8765509,13.8229425 18.8765509,11.2028708 16.8919037,9.18002137 L14.3118624,6.55031707 C14.0188906,6.25170596 13.7164682,5.94346223 13.4329472,5.63521851 C12.8659051,5.03799628 12.270511,4.42150883 11.6562154,3.84355184 C10.7394974,2.91882066 9.64321615,2.42755722 8.49023065,2.42755722 C7.33724514,2.42755722 6.22206244,2.91882066 5.27699236,3.84355184 C5.26754166,3.85318446 5.26754166,3.85318446 5.25809096,3.86281707 L2.04485267,7.16680453 C0.835162961,8.39977944 0.145261799,9.90246761 -0.00594941475,11.6459712 C-0.232766235,14.4586952 0.579994038,17.0787669 1.20374029,18.7933726 C2.73475383,23.002826 5.02182344,26.9040357 8.43352644,31.0845913 C12.5729334,36.1224497 17.5534528,40.1007203 23.2427747,42.9038117 C25.4164359,43.9537669 28.317801,45.1963744 31.5593914,45.408292 C31.7578561,45.4179246 31.9657716,45.4275572 32.1547856,45.4275572 C34.3378975,45.4275572 36.1713334,44.62805 37.60784,43.0386683 C37.6172907,43.0194031 37.6361921,43.0097705 37.6456428,42.9905052 C38.1370792,42.3836504 38.7041213,41.8345913 39.2995154,41.2470017 C39.7058955,40.8520644 40.1217264,40.4378619 40.5281065,40.0043941 C41.4637259,39.0122346 41.9551623,37.8563207 41.9551623,36.6715088 C41.9551623,35.4770644 41.4542752,34.330783 40.4997544,33.3675214 L35.3113197,28.0599497 Z M38.6946706,38.2030949 C38.6852199,38.2030949 38.6852199,38.2127275 38.6946706,38.2030949 C38.3260932,38.6076647 37.9480652,38.9737042 37.5416851,39.3782741 C36.9273895,39.9754963 36.3036432,40.6016164 35.7176998,41.3047974 C34.763179,42.3451199 33.6385456,42.8363834 32.1642363,42.8363834 C32.0224758,42.8363834 31.8712645,42.8363834 31.729504,42.8267508 C28.9226459,42.6437311 26.3142524,41.5263475 24.3579574,40.5727185 C19.0088607,37.9333816 14.3118624,34.1862938 10.4087229,29.4374138 C7.18603393,25.4784085 5.03127414,21.8180142 3.60421831,17.8879067 C2.72530313,15.4893852 2.4039793,13.6206576 2.54573981,11.8578888 C2.64024682,10.7308726 3.06552836,9.79650883 3.84993653,8.99700166 L7.07262552,5.71227944 C7.53570986,5.26917908 8.02714631,5.02836367 8.50913205,5.02836367 C9.1045262,5.02836367 9.58651195,5.39440309 9.88893437,5.70264682 C9.89838507,5.71227944 9.90783577,5.72191205 9.91728648,5.73154467 C10.4937792,6.28060381 11.0419199,6.84892818 11.6184126,7.45578302 C11.9113844,7.76402675 12.2138068,8.07227048 12.5162292,8.39014682 L15.0962705,11.0198511 C16.0980448,12.0409085 16.0980448,12.9849049 15.0962705,14.0059622 C14.8222002,14.2853081 14.5575806,14.564654 14.2835103,14.8343673 C13.4896514,15.6627723 12.7335953,16.4333816 11.9113844,17.1847257 C11.892483,17.2039909 11.8735816,17.2136235 11.8641309,17.2328888 C11.0513706,18.0612938 11.2025818,18.8704336 11.3726944,19.4194927 C11.3821451,19.4483905 11.3915958,19.4772884 11.4010465,19.5061862 C12.0720463,21.1629963 13.0171164,22.7234802 14.4536229,24.5825751 L14.4630736,24.5922078 C17.071467,27.8672974 19.821621,30.4199407 22.8552959,32.3753619 C23.2427747,32.6258099 23.6397041,32.8280949 24.0177321,33.0207472 C24.3579574,33.1941343 24.6792812,33.3578888 24.9533515,33.5312759 C24.9911543,33.5505411 25.0289571,33.5794389 25.0667599,33.5987042 C25.3880838,33.7624586 25.6905062,33.8395196 26.0023793,33.8395196 C26.7867875,33.8395196 27.2782239,33.3386235 27.4388858,33.174869 L30.6710255,29.8805142 C30.9923494,29.5530052 31.5026872,29.158068 32.0980814,29.158068 C32.6840248,29.158068 33.1660106,29.53374 33.4589823,29.861249 C33.468433,29.8708816 33.468433,29.8708816 33.4778837,29.8805142 L38.6852199,35.1880859 C39.658642,36.1706128 39.658642,37.1820375 38.6946706,38.2030949 Z" id="Shape" fill="#00ADF1"></path>
                <path d="M24.044651,10.053474 C26.6134068,10.4849047 28.9468568,11.700755 30.809695,13.5637514 C32.6725332,15.4267478 33.8784759,17.7603959 34.3196744,20.3293699 C34.4275229,20.976516 34.9863744,21.4275572 35.6236611,21.4275572 C35.7020964,21.4275572 35.7707273,21.417752 35.8491626,21.4079467 C36.5746891,21.2902838 37.0551052,20.6039167 36.9374523,19.8783286 C36.4080141,16.7700662 34.9373523,13.9363507 32.6921421,11.6909497 C30.4469318,9.44554882 27.6134568,7.97476219 24.5054583,7.445279 C23.7799319,7.32761607 23.1034275,7.80807304 22.9759701,8.52385586 C22.8485128,9.23963869 23.3191245,9.93581103 24.044651,10.053474 Z" id="Path" fill="#22CABE"></path>
                <path d="M45.9359262,19.9690019 C45.1041003,15.0884515 42.8048962,10.6473376 39.2719729,7.11314598 C35.7390495,3.57895431 31.2995294,1.27892481 26.4207305,0.446800311 C25.7384464,0.325254037 25.0935477,0.792739708 24.972045,1.47526879 C24.8598887,2.16714758 25.3178602,2.81227781 26.0094907,2.93382408 C30.3648936,3.67245144 34.3370958,5.7387381 37.4961648,8.88959153 C40.6552338,12.0497947 42.7114326,16.0234229 43.4497949,20.3803893 C43.5526049,20.9974704 44.0853473,21.4275572 44.6928605,21.4275572 C44.7676314,21.4275572 44.8330559,21.4182075 44.9078268,21.4088578 C45.5901109,21.3060109 46.0574288,20.651531 45.9359262,19.9690019 Z" id="Path" fill="#22CABE"></path>
            </g>
        </g>
    </g>
</svg>