<?xml version="1.0" encoding="UTF-8"?>
<svg width="93px" height="79px" viewBox="0 0 93 79" version="1.1" xmlns="http://www.w3.org/2000/svg" xmlns:xlink="http://www.w3.org/1999/xlink">
    <title>sante</title>
    <g id="Page-1" stroke="none" stroke-width="1" fill="none" fill-rule="evenodd">
        <g id="Homepage" transform="translate(-874.000000, -988.000000)" fill="#FFFFFF" fill-rule="nonzero">
            <g id="sante" transform="translate(874.000000, 988.000000)">
                <path d="M93,26.5816054 C93,29.3662024 92.5632181,32.1241058 91.6896542,34.786303 C87.3792033,54.1385034 50.1282236,77.7030822 48.54603,78.690745 C48.2161618,78.9003873 47.8393559,79 47.4645058,79 C47.087048,79 46.7121978,78.9010384 46.3803739,78.690745 C45.6248064,78.2187242 27.7591215,66.943613 15.088534,53.5844487 C14.3205801,52.7719219 14.3525239,51.4828169 15.1700232,50.7184688 C15.9875225,49.9528185 17.2717918,49.9847206 18.0443091,50.8011538 C28.620951,61.9571205 43.3802688,71.8955991 47.4651577,74.5643069 C53.6296501,70.5361793 84.1678782,49.8740399 87.7762185,33.7166062 C88.562426,31.2725152 88.9353204,28.9417092 88.9353204,26.5861628 C88.9353204,18.3899291 84.4658026,10.8317373 77.271939,6.84983517 C73.9452253,5.02620735 70.1823815,4.05677435 66.387594,4.05677435 C59.6552851,4.05677435 53.3278143,7.02432009 49.0245344,12.2080847 C48.6353421,12.6716417 48.0655699,12.943135 47.4605943,12.943135 L47.4605943,12.943135 C46.8595302,12.943135 46.281935,12.6794544 45.8973061,12.2080847 C41.5842475,7.02822647 35.2502576,4.05677435 28.5199044,4.05677435 C24.7309841,4.05677435 20.9661846,5.02230097 17.6290403,6.84983517 C10.4384362,10.8232734 5.97022228,18.3892781 5.97022228,26.5816054 C5.97022228,28.9325944 6.34572436,31.2634004 7.08564599,33.5193341 C7.56023889,35.6300808 8.50681705,37.7890061 9.78717483,40.0481952 L23.393258,40.0481952 L27.748039,32.7673562 C28.1052875,32.167076 28.7506817,31.7940168 29.4547481,31.7822977 C30.0838445,31.7009148 30.8126836,32.1149909 31.1973124,32.7081094 L38.3227251,43.6674551 L46.2617257,22.2377122 C46.5557386,21.4408109 47.3158695,20.9095434 48.1653126,20.9095434 L48.1692241,20.9095434 C49.0173633,20.9095434 49.77945,21.4369046 50.072811,22.2338058 L56.7216751,40.0475441 L68.4919703,40.0475441 C69.6158688,40.0475441 70.5239841,40.9590325 70.5239841,42.0775589 C70.5239841,43.2032471 69.6152169,44.1069227 68.4919703,44.1069227 L55.3044155,44.1069227 C54.4549724,44.1069227 53.6967972,43.5834679 53.3949613,42.7911241 L48.177047,28.7769903 L40.738064,48.8811686 C40.4740391,49.5992912 39.8188662,50.1110269 39.0548238,50.1898055 C38.9772461,50.1982693 38.9042318,50.205431 38.8305656,50.205431 C38.1480124,50.205431 37.5026182,49.8564612 37.1238565,49.2776661 L29.5675291,37.654236 L26.2942723,43.1251195 C25.9285489,43.7358167 25.266205,44.1160376 24.5517079,44.1160376 L2.03266576,44.1160376 C0.910722923,44.1166886 0,43.2052003 0,42.0866738 C0,40.9609857 0.910722923,40.05731 2.03266576,40.05731 L5.16250166,40.05731 C4.23939239,38.1620653 3.55292765,36.3286715 3.16960261,34.5961925 C2.35014756,32.1280122 1.90554267,29.3668535 1.90554267,26.5855118 C1.90554267,16.9165733 7.17952151,7.99440415 15.6661292,3.29633262 C19.6075972,1.13610516 24.0477789,4.54747351e-13 28.5192525,4.54747351e-13 C35.6844319,4.54747351e-13 42.4643305,2.85035438 47.4560309,7.89153618 C52.4457755,2.85035438 59.2178512,4.54747351e-13 66.3830306,4.54747351e-13 C70.8649348,4.54747351e-13 75.2946859,1.13610516 79.2368058,3.29633262 C87.7403632,7.98854459 93,16.9165733 93,26.5816054 Z" id="Path"></path>
            </g>
        </g>
    </g>
</svg>