<?xml version="1.0" encoding="UTF-8"?>
<svg width="96px" height="96px" viewBox="0 0 96 96" version="1.1" xmlns="http://www.w3.org/2000/svg" xmlns:xlink="http://www.w3.org/1999/xlink">
    <title>Security</title>
    <g id="Page-1" stroke="none" stroke-width="1" fill="none" fill-rule="evenodd">
        <g id="Homepage" transform="translate(-676.000000, -2157.000000)">
            <g id="Security" transform="translate(676.000000, 2157.000000)">
                <circle id="Oval-Copy-4" fill="#CEAB56" cx="47.539357" cy="47.539357" r="47.539357"></circle>
                <path d="M44.7255735,54.2117517 C44.4269513,54.212357 44.1425715,54.0733923 43.948792,53.8323987 L38.5543085,47.1358127 C38.1878531,46.6809338 38.238585,45.9977045 38.6676757,45.6092438 C39.0968184,45.2213904 39.7413641,45.2751653 40.1077675,45.7294369 L44.8543267,51.6219379 L56.643535,41.4547678 C57.0812024,41.0772387 57.7246045,41.1473008 58.0801962,41.6112342 C58.4364116,42.0752228 58.3702937,42.7572375 57.9326264,43.1342145 L45.3689756,53.9688789 C45.1877231,54.1259526 44.9603648,54.2117517 44.7255735,54.2117517 Z" id="Path" fill="#FFFFFF" fill-rule="nonzero"></path>
                <path d="M45.2372444,72.9576457 L48.0383305,74.1295008 C48.3000744,74.2387458 48.5981585,74.2392516 48.8605335,74.1305123 L52.0167646,72.8221009 C63.0986777,68.3551429 70.3083373,57.9444972 70.3094943,46.4082737 L70.3094943,32.8182945 C70.3094943,32.4519696 70.0990263,32.1149285 69.762288,31.942817 L49.008103,21.3285356 C48.7002371,21.1708176 48.3312081,21.1730308 48.0256035,21.3340737 L27.8457091,31.9483804 C27.5147558,32.1226667 27.3094943,32.4558134 27.3094943,32.8182945 L27.3094943,46.6833082 C27.3215901,58.0806488 34.3571219,68.3916591 45.2372444,72.9576457 L45.2372444,72.9576457 Z M29.3759934,33.4054865 L48.5290017,23.3301977 L68.2429951,33.4126683 L68.2429951,46.4082737 C68.2406811,57.1492845 61.5263734,66.8410373 51.2078144,70.9976585 L51.2002939,71.0009966 L48.4522719,72.1398253 L46.0640755,71.1398794 C35.9363681,66.8897423 29.3869322,57.292618 29.3754149,46.6833082 L29.3759934,33.4054865 Z" id="Shape" fill="#FFFFFF" fill-rule="nonzero"></path>
            </g>
        </g>
    </g>
</svg>